<?xml version="1.0" encoding="utf-8"?>
<svg xmlns="http://www.w3.org/2000/svg" xmlns:xlink="http://www.w3.org/1999/xlink" version= "1.1" width="150px" height="150px" viewBox="646 358 657 659">
<g id="layer1">
<g style="fill:rgb(0,0,0); fill-opacity:1.0; stroke-linejoin: miter">
<path d="M1254.9915,664.9051L1254.9915,664.9051C1259.0479,822.7169,1134.3997,953.9371,976.58215,957.9936L976.58215,957.9936C818.7647,962.0502,687.5398,837.4071,683.4834,679.59515L683.4834,679.59515C679.427,521.7833,804.0754,390.56323,961.8927,386.5067L961.8927,386.5067C1119.71,382.4502,1250.935,507.09326,1254.9915,664.9051L1254.9915,664.9051 M1249.3354,665.0505L1249.3354,665.0505C1245.3594,510.36267,1116.7319,388.1864,962.0381,392.16266L962.0381,392.16266C807.34424,396.1389,685.1633,524.76196,689.1394,679.44977L689.1394,679.44977C693.1155,834.1379,821.74274,956.31384,976.43677,952.3376L976.43677,952.3376C1131.1309,948.3614,1253.3115,819.7384,1249.3354,665.0505 Z"/>
</g>
<g style="fill:rgb(254,199,137); fill-opacity:1.0; stroke-linejoin: miter">
<path d="M970.5519,392.50732C967.83105,392.49927,965.09717,392.53015,962.35944,392.6006C807.5157,396.58154,685.21674,525.3326,689.198,680.17444C693.1088,832.2778,817.41705,952.976,968.58545,953.42444C971.31226,953.43256,974.0351,953.4017,976.7786,953.33105C1131.6226,949.3487,1253.9199,820.597,1249.9371,665.7555C1246.0255,513.65436,1121.7189,392.9567,970.5519,392.50732 Z"/>
</g>
<g style="fill:rgb(254,199,137); fill-opacity:1.0; stroke-linejoin: miter">
<path d="M-133.09352,74.36754L-133.09352,74.36754L-133.09352,74.36754L-133.09352,74.36754L-133.09352,74.36754L-133.09352,74.36754L-133.09352,74.36754L-133.09352,74.36754L-133.09352,74.36754L-133.09352,74.36754 M-133.09352,79.845764L-133.09352,79.845764L-133.09352,79.845764L-133.09352,79.845764L-133.09352,79.845764L-133.09352,79.845764L-133.09352,79.845764L-133.09352,79.845764L-133.09352,79.845764 Z"/>
</g>
<g style="fill:rgb(254,199,137); fill-opacity:1.0; stroke-linejoin: miter">
<path d="M-133.09352,74.36754L-133.09352,74.36754L-133.09352,74.36754L-133.09352,74.36754L-133.09352,74.36754L-133.09352,74.36754L-133.09352,74.36754L-133.09352,74.36754L-133.09352,74.36754L-133.09352,74.36754 M-133.09352,79.845764L-133.09352,79.845764L-133.09352,79.845764L-133.09352,79.845764L-133.09352,79.845764L-133.09352,79.845764L-133.09352,79.845764L-133.09352,79.845764L-133.09352,79.845764 Z"/>
</g>
<g style="fill:rgb(0,0,0); fill-opacity:1.0; stroke-linejoin: miter">
<path d="M1267.354,670.722L1267.354,670.722C1268.198,835.3618,1135.4108,969.5127,970.76587,970.3568L970.76587,970.3568C806.1208,971.20087,671.9651,838.41833,671.12103,673.7787L671.12103,673.7787C670.277,509.13898,803.06396,374.98788,967.7092,374.1438L967.7092,374.1438C1132.354,373.2997,1266.51,506.08218,1267.354,670.722L1267.354,670.722 M1261.4534,670.75226L1261.4534,670.75226C1260.626,509.37146,1129.1257,379.21707,967.7395,380.04443L967.7395,380.04443C806.3529,380.8718,676.19434,512.36774,677.02167,673.7484L677.02167,673.7484C677.849,835.1291,809.34924,965.2835,970.7356,964.4562L970.7356,964.4562C1132.1218,963.6288,1262.2808,832.1329,1261.4534,670.75226 Z"/>
</g>
<g style="fill:rgb(240,128,92); fill-opacity:1.0; stroke-linejoin: miter">
<path d="M1168.8103,475.52887L1168.8337,475.53867L1168.815,475.58234L1168.8113,475.58334C1168.809,475.58,1168.8066,475.5776,1168.8043,475.57526L1168.7909,475.57626L1168.8103,475.52887 Z M1168.7996,475.58234C1168.7998,475.58258,1168.8,475.5828,1168.8003,475.58304L1168.8146,475.58405L1168.7946,475.6295L1168.7721,475.62015L1168.788,475.58234 Z M1168.7927,475.51694L1168.7502,475.61523C1168.7543,475.6195,1168.755,475.62033,1168.755,475.62033L1168.7551,475.62134C1168.7555,475.6208,1168.7566,475.62186,1168.7588,475.62405L1168.8003,475.64136L1168.812,475.64236L1168.8535,475.54202L1168.8458,475.53424L1168.8043,475.51694 Z M969.3762,386.46725C1123.8021,386.46725,1250.9354,509.626,1254.9288,664.90424C1258.9865,822.6847,1134.3676,953.8814,976.58435,957.93933C974.0788,958.0038,971.5885,958.03564,969.09686,958.03564C814.6698,958.03564,687.5366,834.8763,683.54407,679.59674C679.48724,521.8154,804.1079,390.62012,961.89136,386.56357C964.39526,386.4992,966.88617,386.46725,969.3762,386.46725 Z M969.26746,379.98093C968.75336,379.98093,968.2507,379.9822,967.736,379.98486C806.31964,380.81302,676.1368,512.33655,676.96545,673.7511C677.79144,834.6552,808.48895,964.5221,969.20557,964.5221C969.69653,964.5221,970.24756,964.5206,970.73914,964.5181C1132.1554,963.68854,1262.3373,832.16406,1261.5072,670.74963C1260.6802,509.84717,1129.9832,379.98093,969.26746,379.98093 Z"/>
</g>
<g style="fill:rgb(254,199,137); fill-opacity:1.0; stroke-linejoin: miter">
<path d="M969.3751,392.06223C966.93225,392.06223,964.4942,392.09344,962.0379,392.1566C807.3407,396.1329,685.15717,524.7586,689.1333,679.44995L689.1333,679.45306L689.1333,679.45325C689.2705,684.7846,689.5558,690.07935,689.98505,695.3304L689.9972,695.3299L689.9972,695.3289L689.9972,695.3286L689.9971,695.3296C689.99695,695.3274,689.9969,695.3262,689.99677,695.32495L689.99695,695.3259C689.60016,690.3105,689.33496,685.2623,689.2041,680.17426C685.2229,525.33594,807.51935,396.58752,962.3596,392.60666C964.81006,392.54364,967.2704,392.51215,969.70776,392.51215C969.9718,392.51215,970.28796,392.51263,970.5519,392.5134C1046.9637,392.74054,1116.513,423.69324,1167.1174,473.89722L1167.1278,473.89288L1167.1278,473.89188L1167.126,473.88757C1116.3391,423.2413,1046.3125,392.06223,969.3751,392.06223 Z"/>
</g>
</g>
<g id="layer2">
<g style="fill:rgb(254,254,254); fill-opacity:1.0; stroke-linejoin: miter">
<path d="M1051.0137,591.1181L1032.2878,599.1763Q1032.1411,598.4727,1032.0308,598.9828Q1031.347,603.43665,1030.9069,605.31604Q1030.4779,608.50995,1030.5713,609.6068Q1030.62,611.1338,1031.0614,612.2603Q1031.2822,612.8236,1031.6011,613.2868Q1031.6992,613.58093,1032.7787,614.4511Q1035.7421,615.62866,1039.6982,615.1843Q1044.0481,614.60004,1044.8055,614.34937Q1049.3811,612.20953,1050.1191,612.01935Q1050.6232,611.7849,1054.2942,611.6473Q1055.2618,611.2412,1055.6766,609.73474Q1055.884,608.98157,1055.9531,607.95325Q1056.0741,607.611,1055.8496,604.2493L1053.1578,595.39136L1051.1028,592.71277Q1050.808,592.23987,1051.0137,591.1181"/>
</g>
</g>
<g id="layer3">
<g style="fill:rgb(68,185,223); fill-opacity:1.0; stroke-linejoin: miter">
<path d="M909.9714,480.78018L916.30206,481.24335L921.8025,482.63284L926.4725,484.9487L930.312,488.19086L933.32104,492.35938L935.4998,497.45422L936.8481,503.4754L937.36597,510.4229L936.9733,519.9256L936.4395,521.7174C935.42535,524.21515,933.09985,527.04706,929.7675,530.51447C929.17584,531.1301,926.0311,533.9901,919.9997,538.8236L917.5147,539.9486C912.57556,542.0662,907.82605,543.43195,903.2522,543.9192C897.4262,544.5398,892.302,544.0211,887.8926,542.49C886.8499,542.757,886.0762,543.1319,885.5713,543.6146L876.75586,515.8297L875.9062,511.38477C875.3185,508.50085,875.3113,505.20337,875.91174,501.4966C876.2744,499.25754,876.9095,497.1987,877.78955,495.3156C878.66956,493.4326,879.8037,491.72678,881.192,490.19818C882.5803,488.66965,884.22266,487.31833,886.1192,486.14432L889.15454,484.51624C895.1349,482.1869,902.07385,480.94153,909.9714,480.78018 M1020.17096,520.01324L1020.63556,520.02124C1021.88196,520.0639,1023.1423,520.5013,1024.5487,520.66095C1027.3027,520.97363,1029.7844,520.9757,1031.9447,521.34906L1034.9558,522.017L1037.5092,522.9012L1039.6049,524.00134L1041.2427,525.31744L1042.4227,526.84973L1043.145,528.59796L1043.4095,530.5622L1043.8118,531.10016L1043.9565,531.9382L1043.8438,533.0762C1043.1409,535.5728,1042.5131,537.3108,1041.9603,538.29004C1041.8369,538.76935,1040.5294,541.4603,1037.7593,546.20386C1036.8895,547.69324,1035.096,549.025,1032.6509,550.36957L1033.6061,549.6003C1032.3989,548.2242,1031.0947,546.89624,1029.6931,545.61646L1027.5178,543.7329C1023.02136,540.03796,1017.6498,536.7765,1011.4031,533.9485C1010.3117,532.79193,1009.5409,531.6908,1009.0905,530.64514C1008.86523,530.12213,1008.7201,529.61316,1008.6551,529.11816L1008.6176,528.38574C1008.63257,527.9044,1008.66504,527.4075,1008.903,526.98346C1009.5026,525.9153,1010.26013,525.03296,1010.9974,524.2298L1012.1323,523.11115C1014.4606,521.04584,1017.14014,520.0132,1020.17096,520.01324 M1033.1478,390.69608L1026.8293,393.8609C1009.5329,401.8661,998.62634,406.17322,994.2134,405.58948C959.8019,401.0377,927.7659,402.6166,897.9536,411.54974C877.9677,417.53845,862.8581,423.9115,852.6128,430.63007C842.3675,437.3487,836.9904,444.42566,836.4819,451.86124L831.4087,454.25497C820.38745,438.07312,809.6417,428.67548,801.82806,431.17105C792.72266,434.0792,787.7494,446.83804,785.068,464.5438C782.68207,480.29865,782.72766,487.151,791.0805,497.114C792.97144,499.3695,798.00793,506.82892,800.4599,508.72217C792.64,540.808,789.30493,559.29846,788.8744,564.13904C787.8604,575.5386,786.48987,586.1713,786.33856,596.2136C786.0405,615.9895,788.4911,633.7851,793.6838,649.60034L790.5374,663.884C781.9749,680.80493,772.9829,701.05457,767.7797,725.65295C760.317,760.9335,758.9665,782.4101,762.2416,787.9064C769.8784,800.72253,785.8524,800.26465,807.5698,788.202L811.73,785.8185C818.36743,778.2472,822.09155,773.7328,822.90216,772.2755L837.2035,745.7434C837.5738,756.1401,840.9787,764.7882,848.7292,769.8479C857.80994,775.776,866.53375,777.2105,873.7846,776.8113C895.4997,775.61566,930.84106,767.0281,978.2542,746.65753C996.4432,738.84283,1009.9374,715.5098,1020.4236,680.24915L1030.743,638.40125C1031.5374,637.08234,1030.4474,622.57513,1027.473,594.87964C1037.892,598.72015,1048.9673,595.92865,1060.3835,586.13367C1070.5846,577.38135,1079.056,558.4959,1085.4142,529.68713C1086.671,523.99243,1086.642,519.7575,1086.0344,517.12317C1086.2891,516.49945,1085.245,514.85736,1082.8372,512.2566C1081.6285,510.9512,1080.1505,509.8897,1078.4672,509.0116C1072.6837,509.15735,1065.4357,506.84616,1056.643,502.2294C1050.3485,498.92435,1047.3563,494.72537,1045.5898,490.12482C1042.2743,481.48987,1041.5874,473.0735,1047.4834,465.31003C1054.62,455.91312,1063.0427,450.40762,1070.9591,447.33777L1055.7402,405.45035C1055.042,403.6928,1054.2617,401.96817,1052.9957,400.6209C1047.2183,394.47278,1040.4747,391.28687,1033.1478,390.69608 Z"/>
</g>
<g style="fill:rgb(68,185,223); fill-opacity:1.0; stroke-linejoin: miter">
<path d="M766.3691,792.50446Q754.89764,824.8911,808.2638,908.4039Q842.5123,946.44037,888.7751,960.4867Q941.6525,975.19385,1055.026,951.4448L1112.3682,931.26105Q1117.2095,929.5299,1125.292,925.04553Q1141.1467,918.07874,1159.5276,889.51807Q1166.7444,884.02466,1181.2996,814.11365L1180.386,777.2238Q1178.7306,751.85693,1144.7867,728.00287Q1100.3446,702.52094,1004.4203,685.43774Q959.3917,679.31055,896.82434,668.05963Q861.4834,666.7139,827.0316,674.53107 Z"/>
</g>
<g style="fill:rgb(68,185,223); fill-opacity:1.0; stroke-linejoin: miter">
<path d="M763.6928,746.9094Q759.83453,795.6098,765.2214,823.66656Q776.81775,874.98804,792.3493,894.6027Q795.76965,900.3579,798.7302,903.05365L822.9562,923.45544Q843.0524,937.7144,847.4521,939.31274Q863.26855,944.2539,884.951,939.922 Z"/>
</g>
<g style="fill:rgb(68,185,223); fill-opacity:1.0; stroke-linejoin: miter">
<path d="M851.65424,946.62646Q848.28357,953.7949,850.1456,963.9454Q849.14923,964.55225,855.88666,973.3345Q864.0155,983.33014,869.45685,984.86743Q870.65076,985.98663,879.695,987.98206L889.3563,988.98145Q894.22736,988.85547,899.79016,989.1076Q912.58026,988.252,923.2127,988.4116Q927.7914,987.95605,932.1697,987.81714Q939.71326,987.057,952.6978,982.1629Q965.38464,975.6305,967.7405,972.4852Q975.96716,959.52454,973.5283,952.90576 Z"/>
</g>
<g style="fill:rgb(68,185,223); fill-opacity:1.0; stroke-linejoin: miter">
<path d="M1021.94055,961.21094Q1020.3548,962.5435,1021.6347,974.0386Q1021.7068,976.3728,1023.67755,978.71014Q1027.0004,982.5093,1041.6971,982.41425Q1051.5701,982.5082,1064.3179,981.3677Q1091.1041,977.1257,1096.8787,977.1659Q1110.565,973.3578,1116.4622,965.7292Q1126.6838,950.6754,1128.7444,934.1636Q1128.1492,923.8347,1114.5706,920.06665Q1113.0958,918.47656,1089.7526,917.43994Q1086.1937,917.08264,1071.2103,920.8216Q1055.0088,924.83606,1038.8317,940.4782 Z"/>
</g>
<g style="fill:rgb(68,185,223); fill-opacity:1.0; stroke-linejoin: miter">
<path d="M1184.7792,760.1921Q1191.2806,757.10846,1193.5123,732.8257Q1194.5632,729.01306,1185.519,696.7405Q1179.168,682.3998,1171.9349,673.4897Q1159.9917,658.04285,1140.9067,636.9618L1132.1453,624.96564Q1123.6669,615.5535,1108.2036,635.3485Q1097.2174,648.84143,1095.8993,652.20605Q1093.2534,656.98035,1093.0552,666.68787Q1091.2721,671.2435,1098.3263,717.36566Q1111.657,760.847,1117.5505,766.405Q1129.7495,786.29193,1141.9626,794.5866Q1148.6847,799.15,1152.8477,800.6853Q1170.8568,806.5093,1172.5035,806.5343Q1181.0555,811.8529,1182.7645,811.70715 Z"/>
</g>
<g style="fill:rgb(68,185,223); fill-opacity:1.0; stroke-linejoin: miter">
<path d="M1114.0642,645.5211Q1103.6992,631.8893,1090.4045,628.6502Q1078.6744,625.5708,1065.2029,623.3471L1038.3336,615.5953Q1036.475,614.59515,1024.0961,618.68085Q1017.7091,621.9179,1011.2712,632.77734Q1008.20026,638.7873,1002.4777,661.0981Q997.8723,675.52924,1003.8761,693.5101Q1006.6135,718.6818,1040.3792,718.08136Q1074.4066,715.947,1094.4485,708.18066Q1103.5697,705.6499,1120.6754,694.3739Q1125.9731,691.51556,1125.3479,688.17505 Z"/>
</g>
<g style="fill:rgb(68,185,223); fill-opacity:1.0; stroke-linejoin: miter">
<path d="M1052.9506,589.9859Q1061.0623,600.04834,1056.052,612.6803Q1037.8834,611.6491,1034.3788,620.3684Q1035.5638,631.4661,1048.2151,637.4793Q1062.8865,642.74316,1077.888,637.3373Q1088.9496,634.01843,1102.3688,626.9751L1112.8662,624.233Q1116.638,621.2372,1117.9839,615.4269Q1120.6001,603.2833,1120.6292,599.9157Q1121.4001,571.95325,1120.6467,569.7564L1114.5375,536.6687Q1112.3654,528.83124,1108.7817,520.0393Q1098.568,496.18433,1092.4989,496.52612Q1090.8625,495.8413,1089.8269,496.36667Q1085.899,501.33533,1085.4493,501.1582Q1078.8718,502.96848,1072.8973,507.2105 Z"/>
</g>
<g style="fill:rgb(68,185,223); fill-opacity:1.0; stroke-linejoin: miter">
<path d="M1099.482,486.6099Q1097.338,485.02838,1099.9412,485.07233Q1103.19,486.79895,1104.4637,488.4924Q1125.5336,516.97455,1125.2313,514.5603L1128.2971,519.7181Q1135.9766,532.10046,1139.3401,559.05975Q1140.2979,565.0096,1137.4342,579.6967Q1128.8907,602.8295,1128.7014,604.2519Q1115.9814,629.7733,1108.5441,634.18066Q1098.9387,641.3527,1086.9779,643.8886Q1082.7803,643.8145,1081.5164,630.2229Q1080.6827,631.05756,1081.8164,603.91486Q1082.8441,583.3786,1086.511,553.49176L1086.8115,543.28326L1089.333,530.39935Q1089.6797,526.0595,1090.9623,515.7809L1090.7877,507.62643L1092.0668,497.11346Q1093.9801,492.61615,1094.1078,490.3397 Z"/>
</g>
<g style="fill:rgb(0,0,0); fill-opacity:1.0; stroke-linejoin: miter">
<path d="M1016.0719,525.1279Q1011.40875,525.1279,1009.53705,526.8762C1009.0118,527.3669,1008.7914,528.1023,1008.9602,528.80096Q1009.0794,529.2943,1009.3152,529.6748L1009.30505,529.6758Q1008.9874,530.07,1008.8864,530.59644L1008.8862,530.5972Q1008.5261,532.47864,1010.57513,533.0973L1010.5752,533.09827Q1010.8145,533.1696,1011.1202,533.22815L1011.1201,533.2291C1011.2468,533.25244,1011.3731,533.26416,1011.4975,533.26416C1011.933,533.26416,1012.3465,533.1207,1012.68274,532.87146L1012.6929,532.87244C1012.60175,533.7627,1013.1212,534.6202,1013.9796,534.94025Q1015.85223,535.6385,1020.03314,536.2487L1020.02295,536.2497Q1020.46265,536.4592,1021.61273,537.34717L1021.6175,537.3508Q1024.0422,539.2112,1024.4456,539.72107L1024.4432,539.72205Q1024.4587,539.74304,1024.4752,539.7655L1024.4755,539.7658Q1025.0143,540.5021,1029.5685,545.587L1029.5829,545.6029L1029.5895,545.6101L1029.5895,545.6111Q1029.9576,546.01666,1030.6746,547.3961L1030.6746,547.3971L1030.675,547.3981C1031.0159,548.05286,1031.6914,548.4662,1032.4304,548.47107C1032.4348,548.47107,1032.4392,548.4711,1032.4436,548.4711C1033.1776,548.4711,1033.8527,548.0676,1034.2,547.42035L1034.5171,546.8292L1034.5068,546.8302Q1035.7367,546.2466,1036.4026,545.2557L1036.4026,545.2556Q1036.7034,544.80804,1036.8732,544.2961L1036.8732,544.29706Q1036.8989,544.2185,1036.9215,544.13995L1036.9192,544.1409Q1037.1243,543.5733,1037.4656,541.9419L1037.4655,541.9429L1037.4729,541.90753C1037.4918,541.81683,1037.5045,541.7249,1037.5106,541.63245L1037.5818,540.5629L1037.5714,540.5639Q1037.7843,539.80084,1037.958,538.88226C1037.9757,538.78864,1037.9866,538.69415,1037.9907,538.59894Q1037.995,538.5017,1037.9972,538.4051L1037.9868,538.40607Q1038.2197,537.2463,1038.3268,536.02136L1038.3164,536.02234Q1038.6415,535.23596,1038.2233,534.1672L1038.2234,534.16815Q1037.8533,533.2212,1036.3923,531.2374L1036.3922,531.2384Q1035.7684,530.37115,1034.5245,529.5418L1034.4968,529.5237Q1029.5828,526.3637,1019.4842,525.3215L1019.4841,525.32245Q1017.6235,525.1279,1016.0719,525.1279 Z"/>
</g>
<g style="fill:rgb(0,0,0); fill-opacity:1.0; stroke-linejoin: miter">
<path d="M1037.7821,547.1158L1037.7821,547.1158Q1038.0902,547.12726,1038.4323,546.97095L1039.0161,546.5646Q1040.4083,545.1668,1039.0167,543.7827L1039.0181,543.78406Q1038.8287,543.59534,1038.611,543.4784L1038.1969,543.31256Q1037.328,543.07336,1036.5682,543.69324C1036.742,543.5515,1036.9385,543.4401,1037.1492,543.3637L1037.1492,543.3637Q1036.8457,543.4737,1036.6942,543.62823L1036.6125,543.7167Q1037.1395,543.1099,1037.6523,542.3288C1038.2565,541.40857,1039.4921,541.1523,1040.4124,541.75635C1041.3326,542.3604,1041.589,543.5962,1040.9849,544.5164L1040.9849,544.5164Q1040.3256,545.5208,1039.6221,546.3307L1039.5404,546.4191Q1039.0569,546.9123,1038.5076,547.1114L1039.0885,546.78186Q1038.2538,547.4629,1037.1388,547.15594C1036.995,547.11633,1036.8562,547.0607,1036.7247,546.9901L1036.7247,546.9901Q1036.4281,546.8308,1036.2043,546.6078L1036.2057,546.60913Q1034.7689,545.1801,1036.1919,543.75146C1036.359,543.5832,1036.5575,543.4448,1036.7758,543.3451L1036.7758,543.3451Q1037.2933,543.1086,1037.93,543.13226C1039.03,543.1731,1039.8888,544.09796,1039.8479,545.198C1039.807,546.29803,1038.8821,547.1566,1037.7821,547.1158 Z"/>
</g>
<g style="fill:rgb(0,0,0); fill-opacity:1.0; stroke-linejoin: miter">
<path d="M1039.4932,544.52826L1039.4937,544.52814Q1039.5039,544.52606,1039.5088,544.5246L1039.509,544.52454Q1039.2385,544.6063,1038.6549,545.1568C1037.8541,545.91205,1036.5927,545.8752,1035.8374,545.07434C1035.0822,544.2735,1035.119,543.012,1035.9198,542.2568L1035.9198,542.2568Q1037.1863,541.0624,1038.3552,540.70886L1038.3555,540.7088Q1038.532,540.65546,1038.708,540.62006C1039.7877,540.40326,1040.8384,541.10254,1041.055,542.1818C1041.2717,543.2611,1040.5724,544.3116,1039.4932,544.52826 Z"/>
</g>
<g style="fill:rgb(68,125,144); fill-opacity:1.0; stroke-linejoin: miter">
</g>
<g style="fill:rgb(68,125,144); fill-opacity:1.0; stroke-linejoin: miter">
</g>
<g style="fill:rgb(68,125,144); fill-opacity:1.0; stroke-linejoin: miter">
</g>
<g style="fill:rgb(68,125,144); fill-opacity:1.0; stroke-linejoin: miter">
<path d="M777.76855,684.01263L776.0623,687.54224Q768.61816,702.8682,764.4399,715.096Q760.85333,725.8619,758.61597,740.5186Q757.0795,749.5245,757.12854,763.5313Q757.13495,769.8863,757.4529,780.7978Q757.74194,787.79877,758.6521,799.8188L758.33246,787.8636L758.3901,786.4856Q758.7453,779.8765,761.1018,755.717Q762.5968,747.8038,765.93475,734.5631Q767.8304,727.40735,769.66595,722.34094L777.76855,684.01263 Z"/>
</g>
<g style="fill:rgb(68,125,144); fill-opacity:1.0; stroke-linejoin: miter">
<path d="M773.6417,821.6607L773.6417,821.6617Q773.56067,821.94574,773.5113,822.1292L773.52893,822.12335L773.5459,822.1059L773.5624,822.07697L773.57837,822.03644L773.59375,821.9844L773.60846,821.9208L773.6227,821.84564L773.6364,821.7589L773.6495,821.6607L773.6417,821.6617 Z"/>
</g>
<g style="fill:rgb(68,125,144); fill-opacity:1.0; stroke-linejoin: miter">
</g>
<g style="fill:rgb(68,125,144); fill-opacity:1.0; stroke-linejoin: miter">
<path d="M766.0279,849.1695L766.08386,849.59827Q769.41425,860.12067,774.4641,872.2295Q776.9328,876.90845,777.60065,877.8241Q781.0637,883.3807,785.8333,888.7858Q787.3831,890.64197,796.34344,899.1048Q792.10876,894.1461,789.24615,891.08014L792.205,892.25574L790.48865,890.6703L780.8291,877.5388L766.0279,849.1695 Z"/>
</g>
<g style="fill:rgb(68,125,144); fill-opacity:1.0; stroke-linejoin: miter">
<path d="M814.63745,915.9042L815.95667,917.098Q824.2101,924.549,827.525,927.5118L833.3318,929.23425Q826.76404,924.26447,821.25916,919.3032Q817.3921,917.5974,814.63745,915.9042 Z"/>
</g>
<g style="fill:rgb(68,125,144); fill-opacity:1.0; stroke-linejoin: miter">
<path d="M838.9292,937.75574L840.6666,939.3131L842.89594,941.3102Q843.2719,941.5594,843.90643,941.86957Q847.0354,943.33075,853.1106,945.3223Q851.08093,944.46625,847.13196,942.42084Q842.99316,940.1577,841.8182,939.3505L838.9292,937.75574 Z"/>
</g>
<g style="fill:rgb(68,125,144); fill-opacity:1.0; stroke-linejoin: miter">
<path d="M794.89716,664.3484L784.60834,692.60535L778.7659,712.9425L773.0391,747.7003Q781.7277,736.2317,781.3562,737.3209Q776.8293,749.01575,774.7096,756.89136L781.02325,747.04376Q781.6683,746.2279,781.6638,746.89386L781.1821,749.07336L771.504,776.4588L771.2922,777.2411L777.1932,767.6856Q777.6384,767.3225,777.3233,769.8193Q777.446,770.86597,772.3821,781.67957L769.1584,792.85046Q769.4379,813.2568,769.8042,813.648Q771.9937,801.0659,774.11487,799.39417Q774.79614,797.7018,773.6619,805.81116Q773.91187,822.5331,773.6589,821.6042Q777.19885,812.29987,777.5543,813.269Q774.66077,827.0668,774.3244,831.3313Q774.26544,832.5128,775.5774,835.97986L781.45825,823.38885L776.98517,838.4536Q776.8382,839.46606,776.9292,840.1415L785.4696,864.4376L794.4995,881.49695Q796.381,874.8985,796.9065,875.63165L796.9149,885.90784L800.9858,893.0863Q800.7219,890.4287,802.3204,882.2038Q802.4789,891.47864,803.37445,896.70905Q817.0338,912.5081,825.95,920.1169Q859.01013,942.9564,872.8881,948.631Q874.01306,949.874,871.77124,949.9005L865.5139,949.2151L894.32526,957.52856Q877.0345,946.6315,875.11554,944.3008L857.3431,923.6782L850.47406,911.2108L851.2736,922.97437L849.94727,921.8981Q846.28186,913.28235,846.8742,904.70294L844.0853,899.6467L842.95264,904.20197L843.86914,914.78015Q843.65955,915.53784,842.79156,914.59705Q840.892,910.9232,839.779,905.7256Q839.03644,902.7416,839.7947,891.75024L838.3078,888.77094L836.97797,892.0469L834.7733,902.27026L831.13043,893.86584Q828.72064,875.89355,830.5144,872.0397Q823.9498,856.9803,824.3637,848.3089L819.848,857.1539L819.8533,855.38654Q820.75964,849.5388,821.66595,846.4523Q821.6716,842.0293,822.2496,838.8349Q822.7249,836.8904,824.37354,833.7684Q828.6933,828.0122,834.0404,830.8096L835.1312,826.91895Q828.82214,826.5949,827.9691,829.5113Q824.67444,829.61804,823.8872,828.67535Q824.3642,830.0716,817.8794,829.11475Q808.5325,814.793,805.24994,807.82556Q804.6884,805.50964,803.27356,790.7622Q802.1116,776.73486,805.11993,760.38086Q805.2204,756.6559,811.9781,734.54126Q815.046,725.4918,819.1566,715.8608L817.17163,711.476Q806.6548,710.0506,804.48376,708.7618Q803.61145,708.50916,794.31274,694.309L794.89716,664.3484 Z"/>
</g>
<g style="fill:rgb(68,125,144); fill-opacity:1.0; stroke-linejoin: miter">
</g>
<g style="fill:rgb(68,125,144); fill-opacity:1.0; stroke-linejoin: miter">
<path d="M1022.9864,958.6492L1020.10657,959.0011Q1005.8032,960.6663,992.6072,961.7628Q980.74207,962.71356,972.3538,963.0784L971.25726,965.3948L979.08496,964.9601L996.66016,964.23175Q1000.5195,964.15314,1004.4636,964.1169Q1018.6755,964.02167,1020.87836,964.95166L1022.7205,964.543Q1022.2647,961.49884,1022.9864,958.6492 Z"/>
</g>
<g style="fill:rgb(68,125,144); fill-opacity:1.0; stroke-linejoin: miter">
<path d="M940.9774,962.10736L941.0936,962.6441Q941.19653,963.16876,941.07135,963.93933L951.7892,964.74384L966.4612,963.6694L968.1479,964.44794L971.63605,963.1122Q968.92126,963.2656,957.65375,963.6203Q956.75543,963.6172,956.1099,963.594Q954.61316,963.5327,953.12573,963.43274Q952.00757,963.3688,949.4217,963.12274Q948.3706,963.041,940.9774,962.10736 Z"/>
</g>
<g style="fill:rgb(68,125,144); fill-opacity:1.0; stroke-linejoin: miter">
<path d="M1023.0081,958.64545L1023.0081,958.6456L1023.008,958.6457L1023.008,958.6458L1023.0079,958.64594L1023.0079,958.64606L1023.0078,958.6462L1023.0078,958.6463L1023.0077,958.6465L1023.0081,958.64746L1023.0081,958.64545 Z"/>
</g>
<g style="fill:rgb(68,125,144); fill-opacity:1.0; stroke-linejoin: miter">
<path d="M1129.4534,926.545L1121.686,930.994Q1113.364,935.8301,1099.7424,941.2185Q1093.0522,944.002,1078.2645,948.4998Q1065.1455,952.0238,1055.6605,953.78357Q1051.8088,954.47766,1025.807,958.2811L1026.9631,960.8926Q1027.9464,960.59094,1028.645,960.4689Q1030.3326,960.29236,1032.3029,959.9801Q1037.4758,959.081,1038.8496,958.73834Q1043.6381,957.70703,1049.557,956.133Q1066.014,954.0827,1066.6313,953.7942Q1068.4489,953.44775,1086.8148,946.9093Q1094.7936,945.22095,1107.1157,941.48376Q1108.6216,941.3178,1116.6974,937.9503L1122.6198,934.2149Q1124.7345,931.78125,1124.2096,930.1976L1127.9978,929.167Q1129.2572,927.37085,1129.4534,926.545 Z"/>
</g>
<g style="fill:rgb(68,125,144); fill-opacity:1.0; stroke-linejoin: miter">
</g>
<g style="fill:rgb(68,125,144); fill-opacity:1.0; stroke-linejoin: miter">
<path d="M854.36804,949.3422L854.17834,949.35333L853.6067,949.66974L858.6969,951.57654Q857.8784,953.50726,857.51465,954.5219Q859.6721,954.4326,860.6643,954.2783Q866.1837,953.06366,866.97736,952.93286Q868.5998,952.609,869.18945,952.6167L872.09906,955.8901L876.74866,957.1504Q879.9332,957.5553,884.40497,958.4013Q890.84326,959.61694,901.97943,962.0554L904.55426,962.3776Q900.46454,960.90845,893.2405,956.9751Q888.1123,954.07263,882.8895,950.3103L854.9541,949.4682Q854.91656,949.40173,854.36804,949.3422 Z"/>
</g>
<g style="fill:rgb(68,125,144); fill-opacity:1.0; stroke-linejoin: miter">
<path d="M941.0206,962.192L941.04987,962.4037Q941.15454,963.24133,941.0598,963.9385L951.78925,964.74384L966.46124,963.6694L967.95807,964.3605L968.1276,963.5416Q964.6066,963.5773,961.6004,963.54285L958.5907,963.4921L955.7063,963.4077L952.947,963.2896L950.3131,963.1376L947.8045,962.95184L945.421,962.7324L943.16284,962.47906L941.0206,962.192 Z"/>
</g>
<g style="fill:rgb(68,125,144); fill-opacity:1.0; stroke-linejoin: miter">
</g>
<g style="fill:rgb(68,125,144); fill-opacity:1.0; stroke-linejoin: miter">
<path d="M1022.66504,963.42255L1022.4582,963.8964Q1021.99097,965.12036,1021.8684,967.76337Q1021.8027,969.168,1021.87067,971.2817L1021.8097,971.7183L1021.8063,972.1754L1021.8605,972.65283L1021.97205,973.1508Q1022.469,974.9817,1024.4285,977.2308Q1024.787,977.6327,1025.1543,977.82874L1025.2874,977.871Q1025.7223,977.81384,1026.3649,977.91174L1023.8771,970.48517L1023.81104,970.23413Q1023.67926,969.6751,1023.4449,968.314Q1023.3303,967.64795,1023.0176,965.7036L1022.9808,965.4727L1022.9911,965.4736Q1022.8237,965.10297,1022.75507,964.7627Q1022.6637,964.1772,1022.7477,963.9602Q1022.70386,963.6613,1022.67535,963.42255L1022.66504,963.4235 Z"/>
</g>
<g style="fill:rgb(68,125,144); fill-opacity:1.0; stroke-linejoin: miter">
<path d="M1128.6442,927.7892L1127.112,928.2993Q1127.3197,928.7975,1109.936,937.4978Q1103.9017,939.95685,1091.6614,944.1582Q1081.5754,947.434,1073.5936,949.38336Q1052.3644,954.40894,1045.5692,955.445L1031.652,960.08075Q1036.738,959.44714,1049.557,956.133Q1065.7079,954.15875,1067.2434,953.6423Q1072.4574,952.05115,1086.8148,946.90936Q1093.2194,945.7041,1110.264,940.51746Q1116.8528,938.16754,1120.9497,935.7408Q1124.8445,932.6349,1124.2096,930.19763L1128.7312,928.96674L1128.6442,927.7892 Z"/>
</g>
<g style="fill:rgb(68,125,144); fill-opacity:1.0; stroke-linejoin: miter">
<path d="M800.85876,459.27917L801.1599,460.01968C802.6923,464.0963,803.4781,466.5421,803.6655,467.32663C803.894,468.28265,804.0796,470.3269,804.07605,473.49835C804.0179,473.56403,803.94794,473.4933,803.8662,473.28625L802.71204,468.34048C802.36597,467.4007,802.13354,466.94864,802.0147,466.98425C802.1271,467.87622,802.2094,469.11935,802.22534,470.71408C802.2541,473.5906,802.1512,474.89304,802.0769,474.58246C800.30225,467.16446,799.05664,462.98526,798.1456,462.14703C798.0294,462.0401,797.9408,462.14795,797.9395,462.38992L798.2965,464.46472C798.56885,468.05054,798.7196,470.38846,798.74866,471.4785C796.2366,464.4934,794.1299,460.97455,792.42865,460.92184C792.0648,460.48663,790.6245,462.5531,788.06866,467.09918C787.7828,467.60773,787.5184,468.7707,787.46594,470.617C787.39075,473.26395,787.6693,475.51508,788.14996,477.36755L794.164,493.71622L794.7118,494.79498C795.75867,496.43964,796.8279,497.74884,797.9194,498.7226C797.9972,497.6772,798.0361,496.7126,798.03595,495.82883L805.8945,502.8766C805.7462,502.11508,805.21075,502.82718,805.2519,502.88437L804.8929,503.45786L804.16705,504.45282C804.53156,505.61212,803.72076,507.33267,803.7017,507.4749C803.2222,511.05692,803.2495,511.0816,803.2207,511.05957L801.5215,517.8914C799.23615,527.9495,798.3316,534.7337,798.0152,536.0327C794.853,549.01495,795.0635,557.3013,793.855,561.7924L792.7001,579.27405C792.3622,580.05597,792.19006,586.7576,792.364,599.3771C792.39307,601.48517,792.57886,604.54114,793.2945,608.4624C795.5728,620.94574,798.578,629.9764,801.76,635.6588C800.63696,641.2827,796.796,637.8186,790.2372,625.2665L790.24493,626.6365C790.19666,626.6928,790.3887,627.4149,790.8883,628.7788C791.5642,630.62396,792.8236,633.26965,794.5993,636.74097L795.8633,642.8522C796.3397,643.7618,796.75964,644.3349,797.12305,644.57153C800.0519,643.8327,802.3943,642.8695,804.15045,641.68195C807.5968,637.4726,809.2383,634.44946,809.3756,632.6267C809.45654,631.55273,809.65875,630.2585,809.24347,628.81006C805.9353,617.2712,804.1711,611.19556,804.07446,610.47534C803.8813,609.03564,803.55444,606.69806,803.3986,603.4107C802.745,603.8521,802.14844,603.8772,801.60876,603.4859C801.52686,599.9916,801.99585,597.0118,803.016,594.5466L802.3767,587.40894L802.3671,586.20154C800.8402,588.2028,799.8588,588.8287,799.82153,588.02686C799.6705,584.7799,801.00696,579.92224,803.4305,573.46423L803.99915,568.3662L798.04895,575.3982C797.5034,576.15784,796.8896,577.4807,796.20746,579.3668C795.8997,579.5897,795.5859,578.62354,796.02136,576.58185C796.7521,573.1559,800.042,567.49725,805.15125,559.4198C806.55054,553.8256,808.4098,547.20734,810.8482,539.6027C812.11115,535.6641,813.28,532.8385,814.2361,531.0871L817.0498,520.2154C817.3827,515.1315,817.5272,510.98434,818.3733,507.97824C818.9689,505.86203,820.397,502.81738,821.79675,498.53625C821.9193,498.36475,822.2062,496.42203,822.42175,492.692C822.47906,491.70007,822.4014,491.13712,822.3487,491.0365C821.1336,488.7191,820.0096,485.8955,819.2954,482.47287C818.8986,480.5712,818.82446,479.1986,818.824,478.40143L820.0025,479.376L814.5858,471.22992C814.6216,474.72943,814.5381,477.45715,814.4479,479.41937C814.3605,481.32098,814.1105,482.5697,813.58514,483.16138L811.77814,479.6019L806.66425,467.0424L805.6555,465.03964C802.77155,461.05048,801.1726,459.1303,800.85876,459.27917 Z"/>
</g>
<g style="fill:rgb(68,125,144); fill-opacity:1.0; stroke-linejoin: miter">
<path d="M806.74744,627.4276L798.8038,629.14777Q800.6128,633.8862,801.75995,635.6588L801.6546,636.21484Q801.1574,638.86804,799.22473,638.105Q798.44446,637.67914,798.037,637.2786Q796.69086,635.8326,794.7012,633.0248L795.5473,645.63257Q796.6539,650.8698,797.1905,652.60425L799.5077,654.54004Q798.7453,654.78436,798.132,655.79663Q798.50073,656.9166,799.10376,658.4631Q800.20386,661.154,801.64185,663.76556Q804.2744,668.3083,805.7648,670.1702Q807.4686,667.5455,808.0381,666.875Q807.44257,662.5345,807.1811,653.4842Q807.1856,650.8081,807.3931,647.2236Q807.83856,641.4085,808.2649,638.9539L807.56195,630.8981Q807.09,628.4965,806.74744,627.4276 Z"/>
</g>
<g style="fill:rgb(68,125,144); fill-opacity:1.0; stroke-linejoin: miter">
<path d="M799.23737,642.2954L799.09735,642.48254Q798.8342,642.7438,795.6131,651.28186L799.50775,654.54Q798.2476,655.11426,797.67786,656.71155L788.2288,682.6624Q788.6467,687.3727,789.3399,690.2577Q790.1059,693.2823,791.415,696.71826Q792.74866,699.7702,795.37146,704.59753Q797.72394,708.31714,801.9714,712.59906Q807.72424,717.71094,812.36584,719.74866Q815.82715,721.08606,818.5834,718.22705Q819.27625,717.24976,819.4851,716.6511Q817.5803,712.35944,814.4824,702.53674Q812.8181,696.9387,811.6925,691.4173Q808.67725,694.7199,807.94275,695.3207Q807.0188,696.17114,806.8706,695.6465Q806.95105,694.2244,808.3229,688.30774Q809.2161,685.55457,810.23267,683.1708L809.7466,679.96277Q808.0249,681.68555,806.4952,683.68994Q803.88434,687.2942,802.9713,689.14044Q802.24963,689.9362,802.23145,689.7031Q802.0729,689.3329,802.3896,688.08105Q802.4936,687.40826,803.9195,683.15094Q806.81714,676.5692,808.7544,674.17426Q808.6042,674.1031,807.884,674.7546Q805.9601,677.047,803.7946,679.13556L800.15326,682.3059Q799.77875,682.5771,799.74243,682.377Q800.1423,680.05206,801.8256,676.73126Q805.21265,670.5776,808.0393,666.8736Q807.2859,659.80096,807.20465,654.8357L799.23737,642.2954 Z"/>
</g>
<g style="fill:rgb(68,125,144); fill-opacity:1.0; stroke-linejoin: miter">
<path d="M811.71045,691.3878L811.71045,691.3888Q810.53033,692.7384,808.97565,694.32294L805.268,711.3864Q805.0988,712.4809,805.1399,713.52734Q805.284,715.3422,805.57104,716.0685Q806.2721,718.2835,808.1829,719.4836Q809.1271,720.1829,812.1295,720.61835Q814.3477,720.9685,817.4386,720.0291Q818.69586,719.55035,819.3606,719.14343L819.991,717.8401Q814.6289,705.41895,811.71045,691.3878 Z"/>
</g>
<g style="fill:rgb(68,125,144); fill-opacity:1.0; stroke-linejoin: miter">
<path d="M812.8099,696.28815L811.7713,698.84686Q806.36255,712.69354,802.17633,728.1629Q800.7643,734.04895,799.7117,742.09796Q799.1855,746.1223,798.74896,750.68756L798.33496,755.388L798.389,757.49243Q798.912,767.3375,800.07275,773.9738Q803.10547,793.5225,806.3525,806.53015Q809.0022,816.0685,809.5355,816.9457Q810.59875,819.77344,811.6647,821.7423Q813.7967,825.6801,815.93994,826.1828Q811.20337,818.77167,807.9073,805.63086Q807.0093,801.9851,806.55396,798.6885Q805.9936,793.7492,805.6824,789.15344Q805.3476,783.48395,805.3554,782.4531Q805.29315,780.284,805.29297,778.20087Q806.17834,766.1528,806.7823,760.3263Q807.2581,756.0757,807.3158,756.0552Q808.05975,752.37335,808.85736,748.96136Q811.25024,738.7254,814.1266,730.9186Q813.8943,730.6961,819.9884,717.8341Q816.3755,709.9674,812.8099,696.28815 Z"/>
</g>
<g style="fill:rgb(68,125,144); fill-opacity:1.0; stroke-linejoin: miter">
<path d="M817.23773,729.83813L817.23364,729.8391Q817.1796,729.83875,817.12573,729.83966L817.01776,729.84454L816.9097,729.8526L816.8555,729.85815L816.80133,729.86383L816.6929,729.8783L816.58435,729.896Q816.5298,729.90643,816.4755,729.9169L816.3665,729.94086L816.2573,729.96814L816.2629,729.96924Q816.5513,729.89557,816.8252,729.868Q816.90607,729.8596,816.9868,729.85443Q817.02716,729.8524,817.06757,729.8503Q817.10785,729.8491,817.1482,729.8478Q817.2372,729.8462,817.30634,729.84766Q817.3528,729.84875,817.39246,729.85034L817.40735,729.85114L817.40735,729.8521L817.40955,729.8437L817.418,729.8447L817.4097,729.84283L817.4035,729.84375Q817.36255,729.8405,817.3157,729.83923Q817.28534,729.83826,817.23773,729.83813 Z"/>
</g>
<g style="fill:rgb(68,125,144); fill-opacity:1.0; stroke-linejoin: miter">
</g>
<g style="fill:rgb(68,125,144); fill-opacity:1.0; stroke-linejoin: miter">
</g>
<g style="fill:rgb(254,254,254); fill-opacity:1.0; stroke-linejoin: miter">
<path d="M1083.0402,455.1541Q1081.7454,455.26254,1079.2781,453.25534Q1078.7129,452.98648,1077.4539,452.7779Q1074.6549,452.18546,1065.1312,452.45526Q1055.7694,454.6134,1049.2462,461.23477Q1045.8174,464.7722,1045.3077,469.78857L1044.6835,481.3518Q1045.7327,488.78677,1050.1794,495.72922Q1065.2767,510.5072,1085.7593,499.20386Q1087.4106,498.38525,1092.6191,491.1294Q1092.8544,491.68256,1095.5249,483.18732Q1096.468,471.25385,1092.0187,465.08676 Z"/>
</g>
<g style="fill:rgb(254,254,254); fill-opacity:1.0; stroke-linejoin: miter">
<path d="M1043.8881,524.77155Q1043.5438,524.38983,1043.1841,524.19855Q1041.387,523.7054,1039.2617,522.3988Q1034.4149,520.6211,1033.5941,520.09393Q1029.1276,518.8011,1025.8503,519.00757Q1022.63,519.3829,1017.93475,519.14124Q1016.9975,519.15564,1014.4509,519.83954Q1010.5758,521.75977,1009.13495,523.5902Q1004.5047,530.4975,1008.0974,534.6992L1012.4748,537.8141Q1014.8182,538.49146,1017.78674,540.5712L1026.0397,547.04474Q1027.38,548.6325,1031.2847,551.657Q1033.025,553.05475,1034.6388,553.26276Q1037.0808,553.7645,1038.8762,551.2663Q1043.5037,544.764,1044.6324,539.89185Q1045.2601,538.46674,1044.6622,534.89325Q1044.83,534.3281,1042.2876,530.5528Q1041.8098,529.32825,1041.7057,527.413 Z"/>
</g>
<g style="fill:rgb(254,254,254); fill-opacity:1.0; stroke-linejoin: miter">
<path d="M929.04663,488.15283Q928.44403,487.5469,924.9591,486.75555L913.4199,481.19305L906.4312,479.824Q895.98334,479.26355,889.3689,484.18607Q877.4901,493.81656,876.26575,497.56708Q870.203,515.4662,872.76025,521.66534Q880.2166,533.15784,894.5371,540.79285Q900.4855,542.48474,903.4114,541.63855L915.178,538.48706Q915.64386,538.42017,917.9142,537.33Q923.21875,535.3956,927.29364,530.9943Q935.9572,520.1616,936.3594,516.5577Q936.8949,517.0311,936.88025,508.89545Q933.71893,500.10147,932.4919,493.96564 Z"/>
</g>
<g style="fill:rgb(254,254,254); fill-opacity:1.0; stroke-linejoin: miter">
<path d="M1041.1627,523.6275Q1041.8162,523.1116,1042.0824,523.6024L1042.7424,525.11334L1043.7684,526.69336L1044.5491,528.5593Q1045.1451,530.7485,1044.9982,530.96356Q1044.6641,533.1982,1044.2152,534.2632Q1043.636,535.4214,1043.0746,535.7089Q1042.1611,536.1386,1041.0642,536.1338Q1040.5829,536.1555,1039.9077,535.9044Q1037.3418,534.7366,1036.3495,534.39795 Z"/>
</g>
<g style="fill:rgb(254,254,254); fill-opacity:1.0; stroke-linejoin: miter">
<path d="M1041.1982,523.8823Q1042.7559,522.9187,1045.0765,527.82025Q1045.8638,530.0592,1045.819,530.4831Q1046.3386,534.7381,1046.0369,535.50385Q1045.2864,538.2344,1044.0696,539.4661Q1039.0476,544.39557,1036.4384,545.69604 Z"/>
</g>
<g style="fill:rgb(0,0,0); fill-opacity:1.0; stroke-linejoin: miter">
<path d="M827.0201,456.4979L826.96857,456.4982Q826.8081,456.49802,826.55554,456.52817L826.82886,456.77652Q827.2111,456.7647,827.53955,456.80093Q828.1218,456.8746,828.4735,456.9927L828.46515,456.9937Q828.54694,457.011,828.8738,457.1353Q829.2,457.27362,829.2613,457.31027Q829.64233,457.50232,829.9886,457.7595Q829.2108,457.09253,828.42566,456.77814L828.2293,456.70508L828.21857,456.70605L828.0153,456.638L827.6842,456.56015Q827.51843,456.53677,827.35254,456.51346L827.0201,456.4979 Z"/>
</g>
<g style="fill:rgb(0,0,0); fill-opacity:1.0; stroke-linejoin: miter">
<path d="M1073.7523,472.38525L1073.5312,472.3915Q1072.5009,472.40442,1071.3634,473.2024Q1071.0176,473.20795,1070.7004,473.255Q1070.5347,473.2516,1069.7484,473.49585Q1069.1921,473.67404,1068.3918,474.21753Q1067.5259,474.90134,1066.9229,475.76166Q1066.6241,476.18683,1066.3969,476.646Q1065.8911,477.82397,1065.8756,478.1005L1065.7439,478.84323Q1065.667,479.5989,1065.7312,480.27393Q1065.8593,481.624,1066.5508,482.65134Q1068.1171,484.84814,1070.6661,484.80737Q1072.7129,484.70712,1074.8972,482.93457Q1076.5885,481.58682,1077.2456,479.22888Q1077.5856,477.86685,1077.6709,476.16284L1077.6184,475.64532Q1077.5312,475.1352,1077.3197,474.67496Q1076.889,473.7444,1076.0634,473.13608Q1075.6548,472.83704,1075.1725,472.64926L1074.6759,472.49442Q1074.0876,472.37097,1073.7523,472.38525 Z"/>
</g>
<g style="fill:rgb(0,0,0); fill-opacity:1.0; stroke-linejoin: miter">
<path d="M1037.997,544.2262L1038.1978,544.2304Q1039.0077,544.2642,1039.9253,544.5684Q1038.496,544.0996,1037.0178,544.4955Q1035.6963,544.86224,1034.7185,545.8791L1035.0177,545.53217L1035.3331,545.2261L1035.6649,544.9608L1036.013,544.7363L1036.3772,544.5527L1036.7577,544.4098L1037.1545,544.30774L1037.5676,544.2466L1037.997,544.2262 Z"/>
</g>
<g style="fill:rgb(0,0,0); fill-opacity:1.0; stroke-linejoin: miter">
<path d="M798.732,659.5654L798.72736,659.58325L798.71326,659.6366L798.7223,659.65344L798.7223,659.6544Q798.7261,659.6345,798.73004,659.6147Q798.73505,659.5901,798.74,659.5654L798.732,659.5664L798.732,659.5654 Z"/>
</g>
<g style="fill:rgb(0,0,0); fill-opacity:1.0; stroke-linejoin: miter">
<path d="M817.3164,676.7263L817.31726,676.8238Q817.31824,676.9241,817.3192,677.1585Q817.3338,677.113,817.3499,677.0529Q817.3585,677.021,817.3692,676.97455Q817.396,676.8554,817.39886,676.76776L817.407,676.76874Q817.4038,676.7675,817.39886,676.7668L817.40497,676.76776L817.3704,676.7491Q817.3652,676.7496,817.34735,676.7417Q817.34265,676.73975,817.3245,676.7263L817.3164,676.7273 Z"/>
</g>
<g style="fill:rgb(0,0,0); fill-opacity:1.0; stroke-linejoin: miter">
<path d="M811.5662,680.1688L811.5677,680.2123Q811.56793,680.2067,811.5731,680.36523L811.58124,680.3662Q811.6164,680.4434,811.6493,680.52155Q811.651,680.4395,811.6525,680.35767L811.66064,680.35864L811.5744,680.1688L811.5662,680.1698 Z"/>
</g>
<g style="fill:rgb(0,0,0); fill-opacity:1.0; stroke-linejoin: miter">
<path d="M906.8339,504.43784L906.7055,504.43973Q905.81586,504.44275,904.2104,505.02896Q903.5721,505.29282,903.0814,505.73456Q902.7061,505.80722,902.0861,506.10175Q901.5523,506.3678,901.1183,506.74225Q900.6844,507.1167,900.35046,507.59933L900.04156,508.1091Q899.4652,509.24722,899.32263,510.56088Q899.1685,511.70096,899.4695,512.8807Q899.89923,514.34906,900.67334,515.1534Q901.3379,515.9549,902.6053,516.6032Q903.8332,517.17316,905.2055,517.1901Q905.83124,517.177,906.50494,517.0379Q906.6437,517.01935,907.3085,516.7707L906.85736,516.9517L907.1087,516.8722Q907.3586,516.78754,907.6027,516.6823Q907.97534,516.54767,908.78656,516.0277L909.04095,515.84644Q909.15735,515.75214,908.97876,515.8839L909.2826,515.65924L909.7233,515.28375Q911.9146,513.4182,912.26324,510.93494Q912.5831,508.49173,911.0336,506.5743Q910.9363,506.39905,910.21173,505.71918Q910.0451,505.52884,909.29114,505.0903L909.83014,505.41663Q909.53644,505.20453,909.2298,505.03854Q908.61664,504.70642,907.9526,504.55798Q907.15796,504.41318,906.8339,504.43784 M906.0906,509.5031L906.0917,509.50406Q906.0921,509.5045,906.09503,509.50674L906.09937,509.5104L906.1005,509.51132Q906.0949,509.5119,906.0891,509.51233L906.08844,509.51147L906.08435,509.50735L906.0795,509.5031L906.0906,509.50412 Z"/>
</g>
<g style="fill:rgb(0,0,0); fill-opacity:1.0; stroke-linejoin: miter">
<path d="M904.754,472.50134L904.26276,472.50455Q901.0583,472.58145,898.80206,472.96957Q893.61884,473.80228,889.0568,475.87723L884.68835,478.21133Q880.49384,480.83002,877.1472,484.38162Q866.80566,495.44916,866.79675,511.19037Q867.65015,526.61694,877.0088,536.31555Q883.12195,542.8082,891.4955,545.9655Q895.64417,547.51636,900.1296,548.0672L905.1523,548.33716Q908.35657,548.26025,910.61285,547.87213Q915.7964,547.0396,920.35785,544.9644L924.7264,542.6303Q928.9206,540.01135,932.2677,536.4601Q942.60913,525.3923,942.61816,509.65125Q941.7644,494.2246,932.4063,484.5262Q926.2927,478.03342,917.91943,474.8762Q913.7707,473.32523,909.2854,472.77444L904.754,472.50134 M904.7417,482.50278L908.078,482.70386L911.31824,483.29343Q914.5106,484.0774,917.399,485.5567Q923.2323,488.5565,927.17676,493.8486Q929.12115,496.4744,930.4252,499.5508L931.541,502.71964L932.2808,506.07303L932.6191,509.85428L932.4516,513.55835Q930.96967,524.8596,922.37836,532.03516Q919.5884,534.3257,916.23,535.8534L912.757,537.15247Q907.3922,538.8002,901.337,538.1378L898.09656,537.54816Q894.9042,536.76434,892.0156,535.2848Q886.1827,532.2852,882.23804,526.993Q880.29376,524.36725,878.98975,521.2908L877.87384,518.122L877.13403,514.7686L876.79584,510.98743L876.96313,507.28323Q878.4453,495.98212,887.0363,488.80646Q889.8263,486.516,893.18475,484.98825L896.6578,483.68918Q900.75574,482.48785,904.7417,482.50278 Z"/>
</g>
<g style="fill:rgb(0,0,0); fill-opacity:1.0; stroke-linejoin: miter">
<path d="M1054.7068,587.46265L1054.619,587.46356Q1052.5165,587.59784,1050.5146,588.225Q1043.3754,590.99005,1041.9536,591.39166Q1038.607,592.4445,1036.3007,592.87537Q1029.4862,594.13556,1026.5316,594.17883Q1025.3798,594.1808,1024.7826,594.06616Q1023.9478,593.9468,1022.37714,593.36505Q1021.9218,593.2565,1021.22644,593.3059Q1019.1373,593.69836,1018.38367,594.9734Q1016.66095,597.766,1019.16205,600.2675Q1021.29376,601.81036,1026.2915,602.01166Q1025.8837,604.8003,1026.605,610.9351Q1027.3855,614.9257,1028.4917,616.11755Q1030.7573,619.14655,1034.8179,619.2135L1043.0828,618.3377L1048.9772,617.40234Q1050.4121,617.24884,1053.848,617.54266Q1054.0804,617.566,1054.7078,617.4603Q1055.6714,617.32056,1056.7123,616.3455Q1057.7268,616.2676,1058.5425,615.7461Q1059.3583,615.2248,1059.8455,614.3843Q1060.3534,613.2922,1060.3208,613.0123Q1060.4174,612.3288,1060.3241,609.3955Q1060.1321,604.0369,1058.8914,596.6695Q1058.7389,594.7671,1058.8983,592.61615L1058.8269,591.882Q1058.5643,589.8857,1057.7042,588.86316Q1057.0734,588.11523,1056.1595,587.74286Q1054.9875,587.38745,1054.7068,587.46265 M1051.0282,596.405L1051.0404,596.6619Q1051.0774,597.3877,1051.2058,598.47675Q1051.9728,603.06305,1052.0868,604.4056Q1052.3915,607.13763,1052.4944,609.59424Q1049.7611,609.43445,1047.9346,609.63464L1042.0844,610.56793Q1038.2028,610.8908,1034.7483,611.3823Q1034.4755,610.86426,1034.3207,609.6694L1034.0123,606.1264Q1033.785,603.55835,1034.3035,601.1924Q1037.7177,600.69586,1042.0029,599.55255Q1044.8544,598.82025,1051.0282,596.405 Z"/>
</g>
<g style="fill:rgb(0,0,0); fill-opacity:1.0; stroke-linejoin: miter">
<path d="M1025.6165,516.9391L1024.5397,516.9494Q1018.5173,517.13477,1013.6545,518.0252Q1009.26447,519.2237,1005.6237,521.74347Q1003.2936,523.56354,1002.6128,525.533Q1001.9453,527.7049,1003.0334,529.6282Q1000.76245,532.1178,1001.6058,534.72314Q1002.458,536.8167,1003.4135,537.3234Q1003.9428,537.7194,1004.58704,537.97266Q1008.21674,539.3878,1009.9297,540.2445Q1010.5761,540.47754,1012.3523,541.8144Q1014.0832,543.09424,1017.85486,546.2966L1028.199,555.21063Q1030.346,556.71423,1034.1084,556.92206Q1040.2242,556.9954,1044.4469,548.9265L1048.8716,540.6594Q1049.5084,539.3915,1049.8333,538.09033Q1050.6034,533.2869,1049.6818,529.05597Q1049.3307,526.7761,1047.274,523.7548Q1046.5801,522.53595,1043.7332,520.8301Q1042.1243,519.6672,1034.5485,517.8398Q1031.8539,517.077,1025.6165,516.9391 M1032.3666,521.0562L1032.6908,521.0984Q1033.8685,521.2455,1036.7278,522.25806Q1039.061,523.34973,1039.6329,523.83563Q1042.088,525.9678,1043.4214,529.03394Q1043.5956,529.3217,1043.9939,530.8713Q1044.1255,531.49756,1044.1783,532.1423Q1044.3066,533.32806,1044.0287,535.00226Q1043.4099,538.4787,1041.2506,540.9815Q1041.0892,540.9792,1041.1047,540.76575Q1041.6411,539.3753,1041.6808,538.35077Q1041.593,534.1142,1041.3519,532.9175Q1040.6935,529.57367,1040.3754,528.93787Q1040.0485,528.2232,1039.8729,527.9844L1038.6893,526.46313Q1037.1218,524.62787,1034.7594,523.6688Q1033.0315,523.3142,1031.4496,523.30634Q1030.6692,523.274,1029.4204,523.6128L1026.2552,523.5926Q1026.2228,522.9923,1028.5029,522.0456Q1030.7811,521.0659,1032.3666,521.0562 M1025.6705,526.9264L1026.7333,526.93976Q1030.2815,527.1068,1031.475,527.4076L1036.6499,528.70087Q1038.7476,529.34735,1039.0363,529.62115L1039.2999,529.8041Q1039.7964,530.52155,1039.8519,530.8163Q1040.3303,531.66547,1040.1195,535.74713Q1038.5529,538.90027,1035.1892,545.01465Q1034.6525,546.12225,1033.8647,546.87134L1024.205,538.58246Q1020.3457,535.3175,1018.3019,533.78766Q1015.67914,531.6981,1011.4551,529.9808Q1011.3219,529.7606,1013.4221,528.7313Q1015.0584,527.9221,1015.88007,527.7573Q1020.84576,526.9788,1025.6705,526.9264 Z"/>
</g>
<g style="fill:rgb(0,0,0); fill-opacity:1.0; stroke-linejoin: miter">
<path d="M818.9881,711.63806L818.46405,711.6688Q816.43066,711.91516,815.4033,714.13184Q814.11414,717.2871,810.8702,727.09546L806.3849,737.7102Q805.2281,740.92456,804.0729,745.1764Q798.2334,772.3796,799.77185,785.0919Q801.70856,804.1153,802.9939,808.45123Q804.75275,814.932,807.02277,820.80334L807.74286,824.20935Q807.95215,825.1554,810.4424,828.06287Q810.2192,829.50287,810.9396,830.7064Q810.85626,832.2281,817.821,833.7652Q824.22375,835.1893,828.6806,834.76904Q837.455,834.437,845.199,827.2112Q850.1635,823.06445,857.2747,815.8994Q862.59094,809.81165,867.06836,803.1752Q876.122,789.793,882.6107,773.34265Q890.10547,752.63074,891.0114,745.8965Q890.7921,743.0845,888.0227,742.21014Q885.7107,741.58905,883.82153,743.8661L878.32874,762.2606Q875.5469,770.4737,872.16394,777.94104Q868.78094,785.40845,864.7973,792.13L860.66327,798.6651Q856.37885,805.0139,851.4938,810.61676Q839.0081,823.1663,834.89795,825.2255Q828.11664,828.52167,818.07965,825.75574Q818.36285,824.9311,815.1425,821.46625L814.5293,818.54126Q811.2061,809.63434,810.3359,805.4615Q809.48676,802.4624,807.694,785.7723Q807.187,779.7775,807.293,777.3584Q807.7826,764.71545,811.64526,747.1751Q813.0894,741.9877,814.08026,739.4701Q814.1479,739.0172,818.1998,729.85767Q822.35425,717.3446,822.95667,716.3594Q823.1886,711.3841,818.9881,711.63806 M821.6074,718.675L821.5247,718.7455Q821.18994,719.0207,820.7875,719.1932Q821.0063,719.0887,821.20984,718.9586Q821.2776,718.91534,821.3435,718.8694L821.409,718.8227Q821.4738,718.7754,821.5368,718.7255L821.5992,718.675L821.6074,718.67596 M815.1881,715.6946L815.2101,716.0763L815.26794,716.4484L815.36053,716.80927L815.48584,717.1566L815.64264,717.48883L815.8288,717.8035L816.043,718.09906L816.28357,718.37335L816.5488,718.62463L816.83716,718.85065L817.1468,719.0496L817.4763,719.2196L816.97626,719.02856L816.5374,718.7874L816.15985,718.49603L815.84344,718.15454L815.58826,717.7629L815.39435,717.32104L815.26166,716.82904L815.19025,716.28687L815.18,715.6946L815.1881,715.69556 M815.2194,821.80237L815.27075,822.0095L815.306,822.2211L815.3252,822.4374L815.3283,822.65814L815.3153,822.88336L815.2863,823.11316L815.24115,823.34753L815.1799,823.5864L815.10266,823.82983L815.10004,823.8308L815.1494,823.6685L815.19147,823.50446L815.22656,823.3391L815.2543,823.17255L815.27515,823.0052L815.2885,822.83704L815.2946,822.6684L815.29364,822.4995L815.2853,822.3307L815.2696,822.1622L815.2466,821.994L815.21124,821.80237L815.2194,821.80334 Z"/>
</g>
<g style="fill:rgb(0,0,0); fill-opacity:1.0; stroke-linejoin: miter">
<path d="M999.041,410.4839L998.82874,410.5146L998.19196,410.6068L998.19196,410.6078L998.6078,410.6561L998.6078,410.65707Q998.82935,410.5705,999.0511,410.4839Q999.04584,410.4843,999.041,410.4849L999.041,410.4839 Z"/>
</g>
<g style="fill:rgb(0,0,0); fill-opacity:1.0; stroke-linejoin: miter">
<path d="M825.65735,510.7438L825.6324,510.7663Q825.50366,510.883,825.25323,511.10614L825.2615,511.10715Q825.4075,510.98407,825.4851,510.91315Q825.6037,510.80527,825.6646,510.7448L825.65735,510.7458L825.65735,510.7438 Z"/>
</g>
<g style="fill:rgb(0,0,0); fill-opacity:1.0; stroke-linejoin: miter">
<path d="M805.7421,652.4666L805.7381,652.4671L805.73395,652.4676L805.72375,652.521L805.72266,652.5277L805.7306,652.5287L805.7504,652.56085Q805.7504,652.5607,805.75116,652.5607L805.7543,652.51855L805.7625,652.5185L805.7421,652.4666 Z"/>
</g>
<g style="fill:rgb(0,0,0); fill-opacity:1.0; stroke-linejoin: miter">
<path d="M800.85657,654.5897L800.84985,654.6146Q800.8225,654.71576,800.7691,654.9175Q800.77313,654.9179,800.77716,654.91846L800.754,655.0485L800.762,655.0495Q800.78143,654.9596,800.86456,654.5897L800.85657,654.5907 Z"/>
</g>
<g style="fill:rgb(0,0,0); fill-opacity:1.0; stroke-linejoin: miter">
<path d="M1037.8723,384.42728L1037.3357,384.43463Q1035.2655,380.08823,996.3482,398.84146L951.2546,396.98013L902.57263,404.5206Q858.3868,418.72397,850.2949,425.964Q835.71,435.2137,831.24725,445.53943L813.3054,427.283Q806.06525,423.0862,800.11316,425.0693Q788.9082,426.39108,782.0007,452.9437Q778.29767,463.23584,782.9232,483.07788Q786.6088,494.08838,795.60065,503.42953Q792.334,512.3799,790.46246,524.2748L783.2256,567.47156L781.7829,581.2936Q779.02454,616.224,791.7177,644.694Q781.5528,662.9883,774.2454,682.2027Q766.9382,701.41705,762.4885,721.5513L758.75323,741.9155Q752.71155,783.10394,758.1003,827.9721Q769.0604,869.31384,785.153,894.82104L802.10205,915.2355L846.46606,950.0663Q837.64685,961.10596,860.5061,985.28357Q872.67035,995.4175,893.84344,992.67004Q938.0555,992.13794,955.938,988.74634Q962.6328,986.76025,972.79895,974.6428Q975.0411,971.2638,972.3456,968.8877Q986.6756,968.9824,1018.3584,966.5172Q1016.1053,986.06946,1033.4785,986.8135Q1042.117,987.3933,1093.4542,981.96326L1111.2201,977.407Q1128.9473,963.75964,1135.0339,930.4166Q1154.4585,914.80786,1167.4128,891.6289Q1178.8116,869.88043,1182.904,851.2926Q1191.8,818.87573,1189.0046,765.1998Q1198.6399,757.3174,1196.081,723.89624Q1193.3402,699.9088,1182.653,680.9082L1140.8159,627.2947L1132.783,613.4287Q1141.4708,599.31384,1145.8811,569.7699Q1147.5328,551.81757,1142.0388,534.1639Q1141.7736,520.6061,1100.812,475.77097Q1099.6018,467.09308,1094.5852,460.38422Q1090.4385,454.2616,1079.9624,450.0562L1074.4326,442.36795Q1066.2362,425.83038,1066.487,412.1432Q1063.0842,401.46115,1059.8989,396.8145Q1050.3541,385.2213,1037.8723,384.42728 Z M1010.49927,413.31235L1010.4706,413.31708L1010.38434,413.3313L1010.3945,413.3323L1010.4269,413.3407L1010.4418,413.34467L1010.4964,413.35968L1010.4964,413.36066Q1010.49725,413.3453,1010.50836,413.31436Q1010.50397,413.3149,1010.49927,413.31537L1010.49927,413.31235 M819.38995,438.21048L819.3937,438.21094L819.3979,438.21188L819.24585,438.40308L819.0755,438.5867L818.8873,438.76138L818.68097,438.92703L818.45667,439.08368L818.2146,439.23138L817.95435,439.3702L817.7696,439.45584Q818.731,438.9819,819.38995,438.21048 M1070.3586,456.41946L1070.4719,456.42035Q1075.4552,457.045,1078.1621,458.42078Q1083.3606,460.8252,1086.928,464.58865L1088.5975,466.3213Q1090.2386,468.90866,1092.1365,472.80914Q1093.3401,476.39706,1093.2737,478.90527Q1092.4451,485.47852,1091.1345,488.60962Q1089.5219,492.4381,1085.9104,496.2255Q1079.2233,502.82935,1069.5131,502.85733Q1059.4062,502.38373,1053.1377,495.92755Q1046.6149,488.91135,1046.5446,479.51166Q1046.4136,475.98853,1048.4475,470.47952Q1049.8053,467.15414,1053.7666,462.87677Q1054.4219,462.00705,1058.6118,459.41052Q1060.3414,458.4741,1062.2228,457.8296Q1065.9862,456.54062,1070.3586,456.41946 M825.2434,511.1149L825.2466,511.11536L825.2497,511.1159Q825.25037,511.11533,825.2509,511.1149L825.2434,511.1159 M825.19824,511.15628L825.1977,511.15674L825.19696,511.1573L825.1974,511.157L825.1977,511.15674L825.198,511.15652L825.19824,511.15628 M1156.2927,658.7005L1169.9791,675.5155Q1171.6787,677.4822,1174.0875,681.9013Q1175.6947,684.52594,1181.2164,696.78143L1183.1376,701.1998Q1184.8353,706.7636,1186.0543,712.0292Q1188.7261,723.8461,1188.932,733.3062Q1189.0728,738.82465,1188.503,745.9309Q1188.1066,749.53815,1187.3506,750.8373Q1184.3367,731.96533,1176.7163,709.2556Q1171.8857,695.00555,1166.4296,681.8702Q1162.925,673.2425,1156.2927,658.7005 M1038.2512,394.38303L1039.0698,394.4401Q1052.0923,398.522,1052.9578,404.5345Q1058.0822,417.3318,1057.7787,418.75375Q1046.6166,409.10947,1045.2604,419.24762L1056.6572,429.3285L1067.396,447.81195Q1051.1917,449.01346,1040.8589,467.23724Q1034.3911,480.53058,1043.7891,497.61554Q1055.6063,512.5748,1072.3315,511.00467Q1095.0544,506.34253,1099.5425,489.56494L1123.132,517.1292Q1132.4447,535.6045,1133.9071,540.41986Q1140.9121,561.0305,1128.6528,599.63104Q1124.1099,610.75854,1116.5665,620.7456Q1107.7323,632.7503,1093.5898,641.52075L1093.0646,645.2853Q1099.4788,657.5596,1126.6924,623.6773Q1137.8896,641.1254,1154.1165,678.55164Q1174.6228,730.2538,1178.5143,755.7427Q1182.1957,793.3767,1175.5197,838.064Q1161.7794,909.4689,1106.7437,935.85913Q1041.9094,964.489,922.2507,957.9232Q892.31866,957.0321,850.623,940.94336L813.3018,911.4719Q787.8214,883.95874,788.5383,881.6338Q776.5133,856.1155,769.85547,834.74915Q761.4232,805.3325,768.9034,741.8048Q773.17316,717.9503,776.0087,709.0044L800.86066,643.4276Q789.50775,618.37915,792.0432,581.5522Q803.127,501.10822,806.33044,502.1228Q803.8961,497.27936,805.56494,497.73474Q795.5198,492.58508,791.9879,480.00888Q790.3532,476.93488,791.04474,458.30777Q796.20447,437.38287,800.86426,435.05792Q808.2793,433.98184,810.6015,435.88626Q822.5017,448.23953,830.32196,458.15225L832.90137,458.53815Q849.67847,437.05487,857.404,433.4763Q872.28094,424.719,901.48914,415.2598Q952.38196,401.97937,993.4326,409.0513L1005.3233,406.73962L1027.0487,396.26138L1038.2512,394.38303 M1125.8083,936.8699L1123.2776,945.73535Q1122.4211,948.1954,1114.5396,963.198Q1113.3209,965.55194,1111.0131,967.9828Q1108.6316,970.1803,1106.8645,970.7735Q1100.3259,972.7115,1095.7073,973.6793Q1092.71,974.33295,1082.593,975.20435Q1075.385,975.83344,1071.7009,975.74524Q1071.6254,976.01245,1049.4985,978.29205Q1034.2219,979.0912,1032.6727,978.8495Q1029.122,978.81573,1026.9349,975.79614Q1025.6102,974.0002,1025.5468,967.6225Q1025.2124,966.4444,1024.642,965.89886L1038.8918,964.1817L1052.3893,962.08746L1065.1339,959.616L1077.126,956.76764L1088.3655,953.54224L1098.8523,949.9398L1108.5865,945.96027L1117.5681,941.6036L1125.8083,936.8699 M853.44214,953.5058L853.91455,953.71747Q874.1841,961.7386,905.6617,966.11505Q918.12054,967.7457,927.91644,968.4468Q951.4565,969.18243,967.43994,968.9559Q958.9679,977.9227,957.68066,978.9192Q955.77374,980.7556,950.29254,981.9444Q948.85156,982.1856,947.8483,982.2614Q940.82996,982.5585,937.2903,982.84534Q932.4682,983.21936,927.1111,983.81635Q914.1529,984.0752,906.2666,984.49426L891.4974,984.4564L882.1994,984.9811Q880.9528,985.01776,877.99725,984.6482Q870.9903,983.2668,869.9296,982.3807Q860.36,974.30396,859.0066,972.03595Q853.71326,965.26514,852.1158,959.4479Q851.4452,956.6855,853.44214,953.5058 Z"/>
</g>
<g style="fill:rgb(68,124,143); fill-opacity:1.0; stroke-linejoin: miter">
<path d="M603.4697,569.8869Q603.2939,569.45404,603.1421,569.0093Q603.0512,568.79443,602.74084,567.6479Q602.50946,566.7221,602.3742,565.7485 Z"/>
</g>
<g style="fill:rgb(0,0,0); fill-opacity:1.0; stroke-linejoin: miter">
<path d="M917.59454,836.6494Q917.284,841.4088,920.86926,851.51825Q921.8913,846.88464,925.4227,838.67883Q925.9616,837.29663,926.56305,838.03845Q927.0075,838.5533,927.39386,840.00256Q927.9801,844.83344,928.50085,846.5102Q929.9619,851.15875,930.54095,852.2878Q932.3641,856.6838,938.81274,865.828Q939.1114,865.62115,939.0586,864.6071Q938.5783,859.0875,938.78265,850.93445Q939.2087,844.2566,939.844,842.9974Q941.4389,837.68555,942.1119,839.0762Q940.87726,852.7347,946.82587,859.1329Q946.5878,855.32465,946.77783,851.9982Q946.70526,851.30554,948.0457,843.5132L948.51794,835.1661Q948.5016,833.86316,946.7386,836.9596Q946.50665,836.9269,945.4426,841.8983Q945.13074,842.6327,944.9417,842.4286L943.898,836.6923Q943.45715,834.8751,943.0301,833.829Q941.1338,829.50616,940.39136,830.666Q940.0461,831.21014,939.99896,831.48303Q938.6139,835.9769,938.6577,835.99036Q937.37213,842.5969,935.8915,848.3689Q935.04584,850.98615,934.61285,850.8705Q934.33655,851.20074,933.44745,849.2341L930.9706,843.0122Q928.3645,837.9485,926.07697,831.7464Q925.66113,830.8325,925.175,830.3405Q923.7444,829.0223,922.3506,831.05646Q921.62164,833.3011,921.51154,838.3594Q921.4023,839.1228,920.9649,839.2771Q919.2301,839.57874,917.69995,833.32825 Z"/>
</g>
<g style="fill:rgb(0,0,0); fill-opacity:1.0; stroke-linejoin: miter">
<path d="M1125.5096,717.93066Q1126.6343,722.05457,1127.1759,723.6791L1127.3021,724.0461Q1131.1753,734.5716,1131.685,736.789Q1133.3624,743.3812,1133.3381,746.3188Q1133.2207,748.36975,1130.9305,745.56036Q1126.7589,739.39514,1126.0083,736.9296Q1128.1667,742.21454,1127.8984,746.7701Q1127.7799,751.86237,1124.9266,761.352Q1124.4076,761.91626,1123.8103,761.18677L1122.0358,757.49115Q1118.5405,752.4448,1116.8284,749.2349Q1114.597,745.81714,1114.2864,746.21454Q1113.9135,746.1335,1113.8296,747.0768Q1114.8885,752.4785,1114.5017,755.5355Q1113.7489,760.2101,1113.0159,759.4015Q1112.8134,759.65796,1110.7928,752.79126Q1110.025,750.7553,1109.4988,749.7301Q1108.7778,748.0839,1104.2266,741.4746Q1103.4788,740.2189,1103.0355,739.2066Q1106.6456,746.18506,1109.8,747.6894Q1110.2076,747.4321,1110.169,746.16064L1109.8938,738.8389Q1110.5199,736.14545,1111.3701,736.8241L1114.7406,741.64966L1120.6152,748.6968Q1120.999,749.1328,1122.0349,745.1383Q1122.4347,743.691,1122.8087,739.40497L1124.3967,732.03046Q1124.9801,730.2854,1127.3303,735.4383Q1127.4565,735.6296,1126.8276,733.58777 Z"/>
</g>
<g style="fill:rgb(0,0,0); fill-opacity:1.0; stroke-linejoin: miter">
<path d="M915.6922,667.6838Q914.0215,669.10803,912.9188,671.36316L908.24713,683.55225Q905.64154,691.39667,905.3859,698.0297Q905.9818,696.7537,907.56934,694.5525Q911.41327,690.07544,914.0081,686.3773Q916.5805,683.28625,916.64,683.86395Q916.7451,684.0627,916.54034,684.8886Q915.57776,687.8945,914.40045,692.60706Q913.94104,694.90356,913.8664,697.5716Q913.80804,698.8507,913.9141,701.1977L914.7629,715.16046Q915.23315,720.1027,915.643,719.7596Q916.0056,719.58795,916.7388,707.2782Q917.0936,704.3125,917.73114,702.3351Q919.0591,698.05804,921.7853,692.1756Q924.41187,687.8651,926.7971,683.0784Q927.20624,682.1228,927.13544,681.8521Q926.8883,680.40564,925.6116,681.538Q923.1082,683.6372,920.7348,687.7582Q920.31604,688.2446,920.0812,688.00574Q919.68396,687.7518,920.0542,684.50555Q921.40753,678.0725,921.3284,677.70557Q921.4447,676.43024,920.30035,676.2185Q919.629,676.3433,919.3393,676.7579Q916.3747,681.2692,915.6893,681.5364Q913.8588,683.1301,913.37946,682.477Q912.98145,682.2485,912.9595,680.0636Q913.47644,676.52734,913.563,674.2896Q913.85986,671.9117,915.1434,668.7787 Z"/>
</g>
<g style="fill:rgb(0,0,0); fill-opacity:1.0; stroke-linejoin: miter">
<path d="M1155.5817,851.72784Q1155.6942,849.97,1156.3784,844.3361Q1156.4819,842.91077,1156.2704,843.8545Q1155.3922,858.557,1152.5072,867.9424Q1151.4048,871.869,1146.0474,879.32214Q1145.1787,880.7012,1144.8395,879.5504Q1145.0642,877.0702,1144.7186,862.91003Q1144.6891,862.046,1144.4846,862.16125L1141.537,869.82794Q1140.7903,871.60236,1139.866,873.131Q1138.4062,875.70886,1133.657,881.3347Q1132.7723,882.4198,1132.3336,881.9453Q1131.4099,879.4658,1132.5116,876.50366Q1137.6327,862.2098,1140.4314,856.642Q1141.9521,854.2325,1143.432,856.0348Q1144.5712,857.4812,1145.8636,864.3227Q1146.4111,865.721,1147.3081,865.3956Q1149.4219,864.52716,1152.5078,848.87695 Z"/>
</g>
<g style="fill:rgb(0,0,0); fill-opacity:1.0; stroke-linejoin: miter">
<path d="M882.07446,574.9854Q877.5737,576.5171,874.85455,581.49866Q870.7238,588.3807,869.6613,596.2426Q869.3179,600.7689,869.8132,600.12195L876.2916,594.10004Q872.4465,598.8815,871.6137,602.346Q870.49036,606.2264,870.6199,614.5884Q870.6439,616.3225,871.1308,615.9612Q872.7992,611.51074,873.5309,610.72485Q877.70886,605.6984,878.19293,606.16266Q878.5086,606.29987,878.41003,607.2707Q877.221,614.6779,877.35425,615.12384Q877.28467,618.54376,877.5739,619.0469Q878.07635,614.67694,879.8139,611.55994Q881.0496,609.202,888.2153,600.51776Q888.4483,600.2894,888.4903,599.8365Q886.98413,599.3742,881.80194,602.08813Q881.6503,602.15656,881.8357,601.43494Q883.3181,598.53394,883.1272,598.07465Q882.9752,596.8397,882.025,596.99054Q881.3128,596.88464,878.7851,598.14954Q876.8622,599.1771,874.94446,601.0057Q874.3829,601.2401,874.4203,601.03094Q874.0422,600.48627,875.87506,596.2805Q876.5324,594.8058,880.4198,589.24994Q880.94385,588.4938,881.09375,587.4531Q881.01526,586.3275,879.67377,586.6394Q879.2141,586.6033,874.17145,589.3901Q873.44403,589.7133,873.2656,589.35266Q873.0873,588.99207,873.4579,587.94763Q874.4307,585.1862,875.9596,581.25165 Z"/>
</g>
<g style="fill:rgb(0,0,0); fill-opacity:1.0; stroke-linejoin: miter">
<path d="M1116.9843,544.30475Q1125.7979,550.65894,1130.2946,562.5592Q1131.711,561.26215,1129.8666,554.1232Q1129.1704,551.5602,1128.1982,549.1188Q1127.6885,547.76624,1124.9277,542.2566Q1124.7782,541.7878,1124.8481,541.798Q1126.0062,541.2706,1131.3402,547.5482Q1132.6885,548.53394,1132.9172,547.8265Q1132.52,545.00543,1129.0435,538.9375Q1124.5365,530.84827,1118.3319,523.8604Q1117.6818,523.13293,1117.103,522.6187Q1116.6129,522.19135,1116.8627,522.6339Q1123.1658,531.59796,1125.0342,537.01324Q1118.145,531.5727,1117.4606,532.4811Q1117.1785,532.6259,1117.7834,534.5493Q1118.7612,536.7883,1119.8856,540.17426Q1120.7289,542.34937,1124.0958,548.85425L1125.9536,553.0491Q1124.5798,550.912,1120.4872,548.175 Z"/>
</g>
<g style="fill:rgb(0,0,0); fill-opacity:1.0; stroke-linejoin: miter">
<path d="M1039.4819,562.2535L1039.4819,562.2535Q1040.949,566.3484,1042.1168,573.06903L1042.1136,573.05133Q1043.8187,582.3645,1043.8718,586.6047C1043.8856,587.7054,1043.0045,588.6089,1041.9038,588.6227C1040.8031,588.6365,1039.8995,587.7553,1039.8857,586.6546L1039.8857,586.6546Q1039.8368,582.75073,1038.1925,573.7692L1038.1893,573.7515Q1037.0801,567.36865,1035.7292,563.59784C1035.358,562.5615,1035.8971,561.42053,1036.9333,561.04926C1037.9696,560.678,1039.1107,561.21716,1039.4819,562.2535 Z"/>
</g>
<g style="fill:rgb(0,0,0); fill-opacity:1.0; stroke-linejoin: miter">
<path d="M1007.5564,527.2701L1007.5564,527.2701Q1007.11694,527.9821,1007.0269,528.1672L1007.02673,528.16754Q1007.23486,527.73987,1007.16125,527.1743C1007.203,527.49506,1007.166,527.8211,1007.0536,528.1244L1007.0536,528.1244Q1006.8513,528.67,1006.69116,529.4143L1006.6977,529.3827Q1006.5743,530.0053,1006.5341,531.0007L1006.5341,531.00055Q1006.5125,531.53766,1006.60046,532.0463C1006.7881,533.131,1006.06085,534.1624,1004.9762,534.35004C1003.89154,534.53766,1002.8601,533.8104,1002.6725,532.72577L1002.6725,532.72577Q1002.5124,531.80035,1002.5511,530.84015L1002.5511,530.84Q1002.6037,529.5345,1002.78754,528.6074L1002.79407,528.5758Q1003.0143,527.5522,1003.3159,526.73865L1003.20825,527.6887Q1003.1277,527.0697,1003.44226,526.4233L1003.4421,526.42365Q1003.6195,526.0588,1004.1642,525.17633C1004.7424,524.2396,1005.97046,523.9489,1006.90717,524.5271C1007.8439,525.1053,1008.1346,526.3334,1007.5564,527.2701 Z"/>
</g>
<g style="fill:rgb(0,0,0); fill-opacity:1.0; stroke-linejoin: miter">
<path d="M1006.7401,528.5016L1006.7401,528.5016Q1006.76086,528.4809,1006.77,528.4675L1006.77,528.4676Q1006.7318,528.52344,1006.6838,528.6765L1006.6739,528.70715Q1006.4898,529.26215,1006.4384,529.4931L1006.4265,529.5435Q1006.17303,530.55817,1006.13995,530.8021L1006.1401,530.80096Q1006.1405,530.7979,1006.1409,530.794L1006.1281,530.8875Q1006.108,531.0124,1006.0991,531.1299L1006.1027,531.07025Q1006.1034,531.0548,1006.1028,531.0462L1006.10284,531.0472Q1006.1034,531.05493,1006.10657,531.0724C1006.1207,531.15076,1006.1302,531.23004,1006.1349,531.3096L1006.1348,531.3088Q1006.1267,531.1717,1006.1047,531.08325L1006.1048,531.08386Q1006.14703,531.2537,1006.365,531.83856C1006.74945,532.87,1006.2249,534.0178,1005.1935,534.4023C1004.16205,534.78674,1003.0142,534.2622,1002.62976,533.2308L1002.62976,533.2308Q1002.3327,532.4339,1002.23615,532.04517L1002.23627,532.0458Q1002.1693,531.7768,1002.1556,531.5452L1002.18384,531.7816Q1002.1433,531.5574,1002.12726,531.3388L1002.1273,531.3398Q1002.1105,531.1113,1002.1204,530.89044L1002.124,530.8308Q1002.14557,530.54425,1002.1927,530.2524L1002.1799,530.3459Q1002.1841,530.30853,1002.18964,530.2675L1002.18976,530.26636Q1002.25226,529.8056,1002.5591,528.57733L1002.5472,528.62775Q1002.6425,528.1989,1002.8903,527.452L1002.88043,527.48267Q1003.1063,526.76306,1003.47974,526.2171L1003.47974,526.21716Q1003.68225,525.9211,1003.92676,525.6775C1004.7066,524.90063,1005.9686,524.903,1006.7455,525.68286C1007.52234,526.4627,1007.51996,527.72473,1006.7401,528.5016 Z"/>
</g>
<g style="fill:rgb(0,0,0); fill-opacity:1.0; stroke-linejoin: miter">
<path d="M1006.70483,529.08527L1006.7047,529.0853Q1006.78906,529.06177,1006.8318,529.0227L1006.8317,529.0227Q1006.6354,529.20233,1006.43304,529.93195L1006.4376,529.9153Q1006.2597,530.5791,1006.2697,530.9337L1006.26874,530.9062Q1006.29193,531.45856,1006.50635,532.62775C1006.7049,533.71045,1005.9881,534.74915,1004.9054,534.9477C1003.8227,535.14624,1002.784,534.42944,1002.58545,533.34674L1002.58545,533.34674Q1002.32086,531.90375,1002.28595,531.07355L1002.285,531.046Q1002.2586,530.1095,1002.58716,528.8834L1002.59174,528.86676Q1003.1,527.03375,1004.1413,526.0813L1004.14124,526.0813Q1004.8008,525.478,1005.63306,525.2457C1006.6932,524.94977,1007.7926,525.56934,1008.0886,526.6296C1008.38464,527.6898,1007.7651,528.78925,1006.70483,529.08527 Z"/>
</g>
<g style="fill:rgb(0,0,0); fill-opacity:1.0; stroke-linejoin: miter">
<path d="M1007.5223,527.257L1007.5223,527.257Q1007.16486,527.61633,1006.5475,528.1208L1006.67163,528.0104Q1006.638,528.0429,1006.60333,528.08655L1006.6147,528.0721Q1005.9537,528.92065,1005.82104,529.20276L1005.82104,529.20276Q1005.865,529.1093,1005.89417,528.9477C1005.8772,529.0416,1005.8535,529.1343,1005.82324,529.22485L1005.82324,529.22485Q1005.6194,529.83527,1005.637,530.13525C1005.63995,530.1846,1005.641,530.23376,1005.64026,530.2832L1005.64026,530.28314Q1005.64105,530.2312,1005.63696,530.2029L1005.6369,530.20245Q1005.6673,530.41223,1005.9149,530.958C1006.3697,531.96045,1005.9258,533.1418,1004.92334,533.59656C1003.9209,534.05133,1002.73956,533.6074,1002.2848,532.605L1002.2848,532.605Q1001.80316,531.54346,1001.6917,530.77386L1001.69165,530.77344Q1001.6503,530.4877,1001.6544,530.22174L1001.65765,530.3696Q1001.5947,529.3018,1002.04224,527.96204L1001.9713,528.2392Q1002.03503,527.8863,1002.2135,527.5067L1002.2135,527.5067Q1002.53534,526.82214,1003.4699,525.6224L1003.48126,525.6079Q1003.6784,525.35956,1003.9011,525.1443C1003.941,525.1058,1003.98236,525.0689,1004.02527,525.0339L1004.02527,525.0339Q1004.4836,524.6594,1004.696,524.44586C1005.4723,523.6654,1006.73425,523.662,1007.5147,524.4383C1008.29517,525.2146,1008.2986,526.47656,1007.5223,527.257 Z"/>
</g>
<g style="fill:rgb(0,0,0); fill-opacity:1.0; stroke-linejoin: miter">
<path d="M1006.0263,528.48114L1006.0263,528.48114Q1005.7949,528.53424,1005.56415,529.4145L1005.5802,529.3488Q1005.4025,530.1342,1005.4269,530.64154L1005.417,530.517L1005.4171,530.5181L1005.4122,530.4773Q1005.59576,531.8675,1005.75183,532.2328L1005.75214,532.2335Q1005.7509,532.2307,1005.7477,532.2239C1006.1661,533.1021,1005.88934,534.1541,1005.09296,534.71277C1004.2966,535.2714,1003.2132,535.1736,1002.5298,534.48126L1002.52985,534.48126Q1002.00885,533.9535,1001.72205,533.25275L1001.722,533.2525Q1001.4044,532.47626,1001.3965,531.5321L1001.6779,532.53656Q1001.37964,532.0366,1001.3919,531.3861L1001.3919,531.3864Q1001.40106,530.89557,1001.6229,528.5651L1001.6245,528.54895Q1001.69824,527.8359,1001.8861,527.0804C1002.15173,526.01215,1003.2331,525.36145,1004.30133,525.6271C1005.36957,525.8927,1006.02026,526.97406,1005.75464,528.0423L1005.75464,528.0423Q1005.63464,528.52496,1005.5897,528.9591L1005.5913,528.94293Q1005.38385,531.1225,1005.3775,531.4609L1005.3775,531.4612Q1005.3867,530.97266,1005.10126,530.4942C1005.2834,530.8009,1005.37976,531.14624,1005.3827,531.49866L1005.3827,531.49866Q1005.38416,531.67645,1005.41144,531.7431L1005.4114,531.74286Q1005.3996,531.7141,1005.36676,531.68085L1002.1489,533.93823Q1002.11615,533.8694,1002.08575,533.7982L1002.08606,533.79895Q1001.7153,532.9311,1001.46014,530.99915L1001.4552,530.9583L1001.4551,530.9572C1001.45276,530.94305,1001.4479,530.888,1001.4452,530.8327L1001.4452,530.8327Q1001.39484,529.7836,1001.69214,528.4693L1001.7082,528.4036Q1002.551,525.18854,1005.13495,524.59576C1006.2079,524.3496,1007.27716,525.01984,1007.5233,526.0928C1007.7695,527.1657,1007.09924,528.235,1006.0263,528.48114 Z"/>
</g>
<g style="fill:rgb(0,0,0); fill-opacity:1.0; stroke-linejoin: miter">
<path d="M1041.5544,611.99695L1041.5544,611.99695Q1041.5157,611.5671,1041.513,610.86017L1041.513,610.8606Q1041.5121,610.6429,1041.5145,610.3877L1041.5146,610.37476Q1041.5302,609.41724,1041.5367,608.12915L1041.5367,608.1303Q1041.5398,607.45166,1041.5402,606.81805L1041.5402,606.81995Q1041.5398,605.80896,1041.5369,605.5436L1041.5367,605.5314Q1041.5333,604.846,1041.4904,602.4669C1041.4705,601.36633,1042.3466,600.458,1043.4471,600.4381C1044.5477,600.4182,1045.456,601.2943,1045.476,602.3949L1045.476,602.3949Q1045.5197,604.8101,1045.5231,605.5117L1045.523,605.4995Q1045.5261,605.78625,1045.5265,606.8185L1045.5265,606.8204Q1045.5261,607.4719,1045.5231,608.14825L1045.5231,608.1494Q1045.5165,609.4584,1045.5005,610.43945L1045.5006,610.4265Q1045.4984,610.64764,1045.4993,610.8441L1045.4993,610.84454Q1045.5013,611.3808,1045.5247,611.6393C1045.6234,612.73566,1044.8147,613.70447,1043.7184,613.8032C1042.6221,613.902,1041.6532,613.0933,1041.5544,611.99695 Z"/>
</g>
<g style="fill:rgb(0,0,0); fill-opacity:1.0; stroke-linejoin: miter">
<path d="M1026.4285,522.916L1026.3829,522.9162L1013.5058,525.2261L1012.34326,525.6229Q1010.68176,526.33673,1009.9701,527.5695L1009.33344,529.5611L1009.44745,530.24646Q1011.0643,533.9179,1012.20154,534.9481L1013.0796,535.531Q1015.34863,536.6522,1020.2333,539.3379Q1022.0688,540.38055,1023.06116,541.06256Q1023.45544,541.2916,1026.9531,544.17914Q1029.327,546.9304,1031.8557,548.6912Q1032.4357,549.05164,1034.0184,549.1047Q1035.5597,549.11237,1035.9352,548.796Q1036.9397,548.2182,1037.7509,547.06476Q1039.1985,544.8121,1039.5175,544.04626L1040.1912,542.54584L1041.6743,538.47314Q1041.7001,532.6079,1040.5635,529.46136Q1040.4857,529.0879,1039.9666,528.1142Q1039.1738,527.93005,1030.6896,523.9586L1029.5964,523.56604L1029.4204,523.6128L1026.2552,523.5926Q1026.3584,523.2017,1026.7812,522.9288L1026.4285,522.916 Z"/>
</g>
<g style="fill:rgb(0,0,0); fill-opacity:1.0; stroke-linejoin: miter">
<path d="M818.874,438.21625C818.87396,438.21625,818.87396,438.21625,818.8739,438.21625Q818.78564,438.22464,818.7612,438.25455L818.76447,438.25555Q818.78925,438.22684,818.87415,438.21875C818.8748,438.2187,818.8753,438.21805,818.87524,438.21738C818.8752,438.21674,818.87463,438.21625,818.874,438.21625 Z M819.1424,438.25455Q819.13544,438.25586,819.1313,438.2579L819.147,438.2589Q819.1689,438.26248,819.1959,438.27264L819.2029,438.27365Q819.16907,438.25946,819.1429,438.25455 Z M819.1279,438.27264Q819.1286,438.2735,819.12946,438.27435L819.13245,438.27536Q819.1319,438.2736,819.1314,438.27283L819.1313,438.27264 Z M818.7588,438.30173L818.7588,438.30176L818.7561,438.30276Q818.7563,438.30222,818.7565,438.30267L818.7565,438.3027L818.7592,438.3037Q818.759,438.30222,818.7588,438.30173 Z M818.88763,438.29416Q818.87616,438.29416,818.8687,438.29788L818.87616,438.2989Q818.8813,438.29663,818.8878,438.29663Q818.8943,438.29663,818.9022,438.29788L818.9024,438.2979Q818.92566,438.298,818.9723,438.31674L818.9787,438.31775Q818.929,438.29623,818.9041,438.29544L818.9026,438.29645Q818.8944,438.29416,818.88763,438.29416 Z M819.19995,438.33475L819.19995,438.33575Q819.20135,438.33575,819.2028,438.33676L819.2028,438.33673L819.20685,438.33774Q819.20557,438.33575,819.2043,438.33478L819.2043,438.33475 Z M818.92737,438.4734L818.92737,438.4744Q818.9284,438.47495,818.92944,438.4765L818.9407,438.4775Q818.9381,438.47495,818.93555,438.4734 Z M818.93396,438.48315Q818.93445,438.48386,818.93494,438.48456L818.935,438.4846L818.93805,438.4856Q818.9375,438.4839,818.93695,438.48315 Z M818.7746,438.48373Q818.75995,438.48373,818.7526,438.49112L818.7563,438.49213Q818.7629,438.4861,818.7746,438.4861Q818.7863,438.4861,818.80316,438.49112L818.8113,438.49213Q818.7893,438.48373,818.7746,438.48373 Z M818.9655,438.49112Q818.96735,438.4922,818.96924,438.49326L818.97424,438.49426Q818.97235,438.4922,818.97046,438.49112 Z M818.84174,438.50598Q818.8441,438.50708,818.8466,438.50824L818.8466,438.5082L818.85205,438.50922Q818.8499,438.50708,818.8477,438.506L818.8477,438.50598 Z M819.58746,438.50714Q819.58887,438.50815,819.5903,438.50916L819.5943,438.51016Q819.5931,438.50818,819.5918,438.50717L819.59174,438.50714 Z M818.7762,438.60126Q818.7765,438.60184,818.7768,438.60242L818.7769,438.60257L818.77997,438.60358Q818.7795,438.60193,818.779,438.60126 Z M819.7319,438.67728Q819.73364,438.67834,819.7354,438.6794L819.7398,438.68042Q819.7383,438.67838,819.73676,438.6773L819.73663,438.67728 Z M819.1484,438.71234C819.1479,438.71234,819.14734,438.71268,819.1472,438.7132Q819.1471,438.71356,819.147,438.71393L819.14954,438.71494C819.1497,438.7133,819.14935,438.71262,819.14874,438.7124C819.1486,438.71237,819.1485,438.71234,819.1484,438.71234 Z M819.1397,438.73523Q819.13934,438.73615,819.13904,438.73706L819.1498,438.73807Q819.14886,438.73615,819.1479,438.73523 Z M819.80756,438.7411Q819.8077,438.74164,819.8078,438.7422L819.8141,438.7432L819.81415,438.7423L819.817,438.74332Q819.8167,438.7417,819.8163,438.7411 Z M819.8097,438.7612Q819.8097,438.76123,819.8097,438.76123L819.8097,438.76224L819.8097,438.7612 Z M819.4344,438.68884L819.4344,438.68985Q819.4663,438.69904,819.4994,438.70898Q819.6544,438.75436,819.7215,438.76074L819.71326,438.76175Q819.7136,438.76096,819.7139,438.76117L819.7266,438.76218Q819.72955,438.76138,819.7323,438.76154L819.7325,438.76254Q819.7612,438.765,819.7805,438.765Q819.7912,438.765,819.79895,438.76395L819.8096,438.76495Q819.80963,438.76263,819.8097,438.76123L819.8021,438.76224Q819.7941,438.76273,819.7818,438.76273Q819.76245,438.76273,819.7325,438.75906L819.7324,438.75903Q819.668,438.75574,819.5001,438.7066Q819.4709,438.6978,819.44257,438.68884 Z M819.73694,438.7765Q819.73846,438.77753,819.74005,438.77856L819.7401,438.7786L819.74084,438.77902L819.74084,438.77905L819.74634,438.78006Q819.74426,438.778,819.74207,438.77686L819.74207,438.7769L819.7414,438.7765 Z M819.76166,438.78848Q819.7738,438.79288,819.78284,438.79312Q819.7834,438.79312,819.7839,438.79312Q819.7909,438.79312,819.796,438.79062L819.7848,438.79163Q819.78436,438.79062,819.7839,438.79062Q819.78345,438.79062,819.78296,438.79062Q819.7771,438.79047,819.7699,438.78848 Z M818.9958,438.79208L818.9958,438.7931Q818.99884,438.79327,819.00183,438.7944L819.0019,438.79443Q819.03143,438.80432,819.0573,438.80432Q819.0777,438.80432,819.0958,438.7982L819.0958,438.79816Q819.0984,438.7972,819.10095,438.79584L819.095,438.79684L819.095,438.7958Q819.0772,438.80182,819.05725,438.80182Q819.0318,438.80182,819.0027,438.79208 Z M819.2513,438.8235Q819.2528,438.82462,819.25433,438.8257L819.25604,438.82394L819.2558,438.82364L819.2557,438.8235 Z"/>
</g>
<g style="fill:rgb(0,0,0); fill-opacity:1.0; stroke-linejoin: miter">
<path d="M816.69,434.5842L816.69,434.5842Q816.65515,434.59445,816.59937,434.60706L816.59937,434.60706Q816.5692,434.61337,816.54987,434.61517C816.5492,434.61523,816.5485,434.61475,816.54846,434.61404C816.5484,434.61334,816.54895,434.61273,816.5496,434.61267L816.5496,434.61267Q816.5691,434.61087,816.5989,434.6046L816.5989,434.6046Q816.65454,434.59207,816.6893,434.58182C816.68994,434.58163,816.6907,434.58197,816.69086,434.58264C816.69104,434.5833,816.6907,434.584,816.69,434.5842 Z"/>
</g>
<g style="fill:rgb(0,0,0); fill-opacity:1.0; stroke-linejoin: miter">
<path d="M811.5557,432.49353L811.5557,432.49353L811.49866,432.508C811.498,432.50818,811.4973,432.50775,811.49713,432.50708C811.49695,432.5064,811.4974,432.50574,811.49805,432.50555L811.49805,432.50555L811.5551,432.4911C811.5558,432.4909,811.55646,432.49133,811.55664,432.492C811.5568,432.49268,811.5564,432.49335,811.5557,432.49353 Z"/>
</g>
<g style="fill:rgb(0,0,0); fill-opacity:1.0; stroke-linejoin: miter">
<path d="M818.55585,438.83826Q818.6084,438.84332,818.6567,438.85666L818.6485,438.85767Q818.5687,438.86368,818.48444,438.87985L818.48444,438.88086Q818.4878,438.87668,818.4914,438.87363L818.491,438.87463Q818.5197,438.85358,818.54767,438.83826 Z M818.7864,438.91177Q818.7918,438.915,818.7971,438.91833L818.78894,438.91934Q818.7856,438.92133,818.7823,438.92432L818.7823,438.92532Q818.78076,438.9178,818.7782,438.91177 Z M818.25244,438.89587L818.25244,438.89688Q818.2484,438.9167,818.2474,438.93863L818.2392,438.93964Q818.2172,438.94366,818.19366,438.9489L818.1912,438.94992Q818.2123,438.92316,818.24426,438.89587 Z M818.6806,438.86383L818.6806,438.86484Q818.69617,438.86893,818.7113,438.87488L818.70306,438.8759L818.67896,438.95474L818.6724,438.86383 Z M818.9101,439.08627Q818.8938,439.13794,818.8212,439.17798L818.8212,439.179Q818.79395,439.19223,818.7571,439.1932L818.7571,439.1942Q818.80005,439.1684,818.84467,439.137L818.85425,439.1293Q818.87885,439.10706,818.9019,439.08627 Z M818.0249,439.2936Q818.026,439.294,818.0271,439.2944L818.0272,439.29443Q818.0435,439.3003,818.068,439.30508L818.0598,439.3061Q818.0802,439.3284,818.10364,439.348L818.10364,439.349Q818.01025,439.3361,817.96454,439.32175L817.95636,439.32275Q817.9643,439.31702,817.9746,439.3117L817.9745,439.3127Q817.99615,439.3015,818.0167,439.2936 Z M818.6443,439.5001Q818.7733,439.5383,818.95264,439.66364L818.94446,439.66464Q818.94006,439.6637,818.9356,439.6637Q818.7659,439.6637,818.52185,439.59232L818.5137,439.59332Q818.53796,439.5582,818.5555,439.5134L818.54846,439.5144Q818.5969,439.5134,818.6361,439.5001 Z M819.15063,438.49335Q819.02875,438.49335,818.946,438.5162L818.9351,438.5199Q818.8694,438.54648,818.8528,438.60007L818.8528,438.60107Q818.7973,438.58945,818.74805,438.58945L818.74945,438.59045Q818.7344,438.5885,818.7193,438.5885Q818.61316,438.5885,818.506,438.63547L818.4978,438.63647Q818.2824,438.63745,818.1374,438.72546L818.12573,438.73373Q817.981,438.85272,817.9554,438.98352L817.9472,438.98453Q817.9092,438.99097,817.87164,439.0023L817.87103,439.0033Q817.82184,439.01508,817.7797,439.04974L817.77155,439.05075Q817.7,439.08698,817.7069,439.14722L817.6987,439.14822Q817.6894,439.16275,817.6806,439.1799L817.6774,439.18665Q817.6672,439.21088,817.6633,439.2363L817.6633,439.23636Q817.66064,439.25415,817.66113,439.2719L817.66113,439.272Q817.6667,439.46786,818.0802,439.64767L818.072,439.64868Q818.07306,439.64865,818.07416,439.6496L818.1103,439.6702Q818.161,439.6864,818.2065,439.6943L818.19824,439.6953Q818.648,439.86386,818.9389,439.86386Q818.9969,439.86386,819.0485,439.85712L819.0679,439.8526Q819.09564,439.84314,819.1171,439.82996L819.11725,439.82986Q819.2247,439.76373,819.18524,439.64636L819.1853,439.64737Q819.1838,439.64175,819.1815,439.63602L819.1812,439.6352Q819.15936,439.5812,819.09644,439.52118L819.0854,439.51205Q818.9704,439.4302,818.8689,439.37766L818.8607,439.37866Q818.88995,439.3685,818.91693,439.35403L818.918,439.35345Q819.14514,439.22815,819.1198,439.03418L819.128,439.0352Q819.4123,439.31317,819.6725,439.41782L819.7867,439.38925Q819.8391,439.32675,819.8069,439.2423L819.8068,439.24216Q819.7741,439.15674,819.61926,439.02682Q819.5182,438.94208,819.35864,438.83047L819.35516,438.82816Q819.31415,438.80194,819.2748,438.77863L819.2666,438.77963C819.29224,438.75488,819.3041,438.71884,819.29645,438.68387L819.2882,438.68488C819.3169,438.66776,819.3371,438.63788,819.3393,438.6026C819.3427,438.54736,819.30066,438.49982,819.2454,438.49643Q819.1954,438.49335,819.15063,438.49335 Z"/>
</g>
<g style="fill:rgb(0,0,0); fill-opacity:1.0; stroke-linejoin: miter">
<path d="M819.48785,438.36346L819.488,438.36328Q819.4581,438.40662,819.3977,438.4176L819.39825,438.41748Q819.3927,438.41852,819.3867,438.4193L819.37415,438.4202Q819.25415,438.42087,819.23,438.42523L819.22986,438.42624Q819.2363,438.42407,819.24506,438.4201L819.22943,438.42572Q819.1758,438.4401,819.15656,438.45346L819.15607,438.45377Q819.1532,438.45572,819.1519,438.4569L819.15204,438.4568Q819.188,438.4238,819.15546,438.37625L819.1553,438.37598Q819.15393,438.37405,819.1531,438.373L819.0995,438.3392Q819.0944,438.33795,819.0913,438.3382L819.0914,438.3392Q819.1035,438.33728,819.13367,438.3217L819.12054,438.32983L819.5088,438.0458C819.5492,438.01627,819.60516,438.02106,819.63995,438.057C819.67474,438.09296,819.6777,438.14908,819.6468,438.18848L819.6468,438.18948Q819.5052,438.3692,819.4411,438.41306L819.4413,438.41293L819.0909,438.65378L819.0687,438.66525Q818.96545,438.70325,818.94403,438.7176L818.9439,438.71765Q818.9448,438.71704,818.9467,438.71545L818.9427,438.7187L818.681,438.91583L818.66125,438.92746Q818.44727,439.022,818.3861,439.08572L818.3822,439.08957Q818.3543,439.1156,818.2948,439.19092L818.29816,439.18646Q818.3503,439.11243,818.2707,439.0569L818.2704,439.0567Q818.232,439.03012,818.19446,439.0425L818.17957,439.0488L818.90564,438.67032C818.9529,438.6457,819.01117,438.66235,819.03827,438.70825C819.06537,438.75415,819.0518,438.81323,819.0074,438.84268L819.0074,438.8437L818.8961,438.9165L818.89825,438.91504Q818.78644,438.99347,818.3964,439.18518C818.3697,439.19833,818.3385,439.19888,818.3113,439.1867C818.28406,439.17453,818.2637,439.15085,818.2557,439.12213L818.252,439.09525Q818.252,439.22983,818.38074,439.19122L818.378,439.19202Q818.3887,439.18915,818.3964,439.1849L818.3962,439.18503Q818.3785,439.1946,818.2441,439.28064L818.2441,439.28165Q818.1416,439.3462,818.0791,439.4014L818.08203,439.39868Q818.0337,439.44495,818.0237,439.45792L818.02374,439.45782Q818.07,439.39786,818.0116,439.3373L818.013,439.33878Q817.9629,439.28464,817.9046,439.31454L817.90314,439.3153Q817.903,439.31537,817.9031,439.31534L817.89923,439.3176Q818.1029,439.1908,818.2471,439.03976L818.2849,439.01492Q818.2579,439.0249,818.2447,439.04364L818.24457,439.0438Q818.2605,439.021,818.32294,438.88937C818.33984,438.85373,818.3761,438.8313,818.4155,438.83212C818.45496,438.83295,818.49023,438.85684,818.5057,438.89316L818.5137,438.9323L818.5137,438.93237L818.5058,438.89352Q818.5359,438.965,818.4746,439.0296L818.4746,439.02963Q818.4595,439.04562,818.43677,439.0623L818.42993,439.0669L818.2248,439.19305L818.24384,439.03754Q818.2162,439.00934,818.186,439.01138L818.186,439.0124Q818.23047,439.00836,818.43805,438.92615L818.4364,438.92682Q818.60187,438.85782,818.7602,438.76422L818.76025,438.7642Q819.0423,438.59766,819.17694,438.40228C819.2083,438.35672,819.2707,438.3452,819.3163,438.37662C819.3619,438.40802,819.37335,438.47043,819.342,438.516L819.342,438.517Q819.1822,438.74786,818.8622,438.9368L818.86224,438.93677Q818.6921,439.03738,818.51355,439.11182L818.5119,439.1125Q818.2754,439.20618,818.1995,439.21133L818.1995,439.21234Q818.1377,439.2155,818.10077,439.17786C818.0794,439.156,818.0691,439.1257,818.0728,439.09546C818.07654,439.06522,818.0939,439.0383,818.1198,439.02234L818.1198,439.02335L818.32495,438.89618L818.3181,438.9008Q818.3263,438.89474,818.3292,438.8917L818.3292,438.89172Q818.3004,438.9221,818.3211,438.97122L818.31323,438.93237L818.31323,438.9323L818.50397,438.97525Q818.4341,439.12262,818.4089,439.15866L818.40875,439.1588Q818.3859,439.19128,818.35425,439.20297L818.3921,439.17813Q818.23035,439.3476,818.0052,439.48776L818.00134,439.49002Q817.99945,439.4911,817.9975,439.49213L817.99603,439.4929Q817.91907,439.53238,817.8659,439.47495L817.8673,439.4764Q817.8056,439.41245,817.86505,439.3354L817.8651,439.3353Q817.88403,439.31085,817.9435,439.2539L817.9464,439.2512Q818.0206,439.18567,818.13605,439.11182L818.13605,439.11282Q818.2763,439.02206,818.3007,439.00882L818.3005,439.00894Q818.3136,439.00177,818.32587,438.99847L818.3231,438.99927Q818.45245,438.96048,818.45245,439.09525L818.30804,439.0053Q818.684,438.8205,818.78314,438.75098L818.7853,438.7495L818.89655,438.6757L818.9983,438.84805L818.2722,439.22653L818.2573,439.23282Q818.2,439.25174,818.15625,439.22144L818.15594,439.22125Q818.0705,439.16162,818.1342,439.0711L818.1376,439.06665Q818.20636,438.9796,818.2455,438.94308L818.2416,438.94693Q818.3303,438.85452,818.5802,438.7441L818.5604,438.75574L818.8221,438.5586L818.81805,438.56183Q818.8248,438.55615,818.8327,438.5509L818.8326,438.55096Q818.8738,438.52344,818.9995,438.47714L818.97736,438.48862L819.32776,438.24777L819.32794,438.24765Q819.36664,438.2212,819.4891,438.06488L819.6271,438.20755L819.23883,438.49158L819.2257,438.49973Q819.1593,438.53406,819.1064,438.53802L819.10645,438.53903Q819.0776,438.54022,819.05164,438.53384L818.99805,438.50006Q818.99414,438.49527,818.99023,438.48962L818.99005,438.48935Q818.92456,438.3936,819.01654,438.30914L819.01666,438.30902Q819.0282,438.2985,819.04266,438.28854L819.0422,438.28885Q819.0901,438.25558,819.17755,438.23212L819.1619,438.23773Q819.17615,438.23126,819.1946,438.22797L819.19446,438.22897Q819.2357,438.22055,819.37305,438.21976L819.3605,438.22064Q819.36096,438.22058,819.36127,438.22052L819.3618,438.2204Q819.34033,438.2243,819.32294,438.24957C819.35455,438.2039,819.41693,438.19254,819.46246,438.22403C819.508,438.25552,819.51935,438.31796,819.48785,438.36346 Z"/>
</g>
<g style="fill:rgb(68,185,223); fill-opacity:1.0; stroke-linejoin: miter">
<path d="M829.97437,458.33902L829.97424,458.33862Q829.9753,458.3426,829.97644,458.3448L829.9762,458.3443Q829.97284,458.3378,829.9601,458.3239L829.9645,458.32843Q829.80225,458.17334,829.71423,458.06256L829.71326,458.0613Q829.3377,457.57324,829.1574,457.3708C829.1206,457.32947,829.12427,457.2661,829.1656,457.2293C829.2069,457.1925,829.27026,457.19617,829.30707,457.2375L829.30707,457.2375Q829.4919,457.44495,829.8721,457.93912L829.8711,457.93787Q829.95044,458.03766,830.103,458.1836L830.1074,458.1881Q830.139,458.22232,830.15466,458.25305L830.1544,458.25256Q830.1634,458.26984,830.16797,458.2871C830.1823,458.34015,830.15063,458.39517,830.0972,458.4096C830.0438,458.42404,829.98883,458.39246,829.97437,458.33902 Z"/>
</g>
<g style="fill:rgb(68,185,223); fill-opacity:1.0; stroke-linejoin: miter">
<path d="M829.83844,458.18594L829.83844,458.18594L829.54047,457.76913L829.54315,457.77267L828.856,456.8964C828.82184,456.85284,828.82947,456.78986,828.87305,456.7557C828.9166,456.72156,828.97955,456.7292,829.01373,456.77274L829.01373,456.77274L829.70087,457.64902L829.70355,457.65256L830.0015,458.06937C830.0337,458.11438,830.0233,458.17697,829.9783,458.20917C829.9332,458.24136,829.8706,458.23096,829.83844,458.18594 Z"/>
</g>
<g style="fill:rgb(68,185,223); fill-opacity:1.0; stroke-linejoin: miter">
<path d="M829.96124,458.21228L829.9627,458.21393L829.9621,458.21326L829.96063,458.2116Q829.3833,457.54788,829.09515,457.12457C829.064,457.07883,829.07587,457.0165,829.1216,456.98535C829.1673,456.9542,829.2297,456.96603,829.2608,457.01178L829.2608,457.01178Q829.5421,457.42508,830.1119,458.08008L830.1104,458.07843L830.111,458.0791C830.1488,458.1225,830.1444,458.1858,830.10266,458.2221C830.0609,458.25842,829.99756,458.25403,829.96124,458.21228 Z"/>
</g>
<g style="fill:rgb(68,185,223); fill-opacity:1.0; stroke-linejoin: miter">
<path d="M829.9907,458.1477L829.99066,458.14798Q829.98737,458.16046,829.98895,458.16852L829.9889,458.16843Q829.9797,458.12173,829.8555,457.9613L829.85864,457.96518L829.8583,457.96475L829.85693,457.96313Q829.65796,457.7208,829.28766,457.32544C829.2498,457.28506,829.25183,457.22165,829.29224,457.1838C829.33264,457.14597,829.39606,457.14804,829.4339,457.18842L829.4339,457.18842Q829.8091,457.58896,830.01184,457.83594L830.0105,457.83432L830.01086,457.83475L830.014,457.83862Q830.1672,458.0366,830.18555,458.1296L830.1855,458.12952Q830.19293,458.1671,830.1844,458.19937C830.17,458.2531,830.11505,458.28482,830.0616,458.27048C830.0081,458.25613,829.9764,458.20117,829.9907,458.1477 Z"/>
</g>
<g style="fill:rgb(68,185,223); fill-opacity:1.0; stroke-linejoin: miter">
<path d="M830.0704,458.29602L830.0704,458.29602Q830.05585,458.26938,829.9752,458.169L829.9786,458.173Q829.8232,457.99896,829.4315,457.49545C829.3975,457.45175,829.4054,457.3888,829.4491,457.35483C829.4928,457.32086,829.5557,457.3287,829.5897,457.3724L829.5897,457.3724Q829.977,457.87024,830.1281,458.03952L830.1315,458.04352Q830.2232,458.15775,830.2463,458.2C830.27277,458.2486,830.2549,458.30945,830.2063,458.33597C830.1577,458.3625,830.09686,458.3446,830.0704,458.29602 Z"/>
</g>
<g style="fill:rgb(68,185,223); fill-opacity:1.0; stroke-linejoin: miter">
<path d="M830.0605,458.13538L830.0605,458.13538Q830.04,458.0779,829.92206,457.93286L829.9241,457.9353L829.9225,457.93347L829.9223,457.9332Q829.6544,457.6221,829.38715,457.29565C829.3521,457.25284,829.3584,457.18973,829.4012,457.15466C829.444,457.1196,829.50714,457.1259,829.5422,457.1687L829.5422,457.1687Q829.80786,457.49313,830.07416,457.80246L830.074,457.8022L830.07556,457.80402L830.0776,457.80646Q830.2171,457.97812,830.2492,458.068C830.2678,458.12012,830.24066,458.17743,830.18854,458.19604C830.1364,458.21466,830.0791,458.1875,830.0605,458.13538 Z"/>
</g>
<g style="fill:rgb(68,185,223); fill-opacity:1.0; stroke-linejoin: miter">
<path d="M826.7038,455.7885Q826.6216,455.7885,826.59,455.85706L826.59,455.85806Q826.5663,455.90836,826.5939,455.96826L826.5939,455.96927Q826.59906,455.97952,826.6063,455.99158L826.61743,456.00662Q826.7461,456.1502,827.0423,456.30057L827.0421,456.30157Q827.129,456.3492,827.2304,456.40082L827.2304,456.40182L827.05316,456.37805L827.05316,456.37906L826.6021,456.2351L826.5681,456.2305Q826.5164,456.23242,826.48615,456.2401L826.4862,456.24112Q826.38806,456.26495,826.3913,456.35425L826.3913,456.35526Q826.39325,456.40817,826.442,456.44452L826.43933,456.44553Q826.431,456.4442,826.4238,456.4442Q826.4145,456.4442,826.4069,456.44473L826.4045,456.44574Q826.38306,456.44553,826.3671,456.44818Q826.2644,456.46524,826.26624,456.55804L826.26624,456.55838Q826.26764,456.61877,826.32764,456.6549L826.3277,456.65494Q826.3416,456.6633,826.36127,456.67197L826.36115,456.67297Q826.42426,456.7015,826.6179,456.73776L826.6179,456.73877Q826.6658,456.7468,826.71826,456.75546L826.70996,456.75647Q826.70966,456.76627,826.71124,456.77808L826.7113,456.77853Q826.71924,456.8364,826.77997,456.86716Q826.7952,456.8749,826.8164,456.8823L826.83264,456.88647Q826.99786,456.9147,827.10046,456.9147Q827.17334,456.9147,827.21454,456.90045Q827.236,456.89304,827.2528,456.88242L827.2611,456.88342Q827.40857,456.8923,827.5003,456.8923Q827.51184,456.8923,827.5225,456.89215L827.53076,456.89316Q827.5866,456.9071,827.6469,456.92328L827.6488,456.92377Q827.7766,456.95535,827.84973,456.9632L827.8649,456.96365Q827.8898,456.96252,827.9077,456.9591L827.90784,456.95908Q827.9774,456.9457,827.99963,456.89084L828.00793,456.89185L828.1584,456.93854L828.16125,456.9394Q828.4625,457.02512,828.6827,457.05786L828.67444,457.05887Q828.9728,457.27365,829.08405,457.6597L829.08405,457.6607L829.08405,457.65985C829.0967,457.70377,829.1368,457.73233,829.1803,457.73233C829.18945,457.73233,829.1988,457.73108,829.20807,457.7284C829.2612,457.71307,829.292,457.65756,829.2806,457.6321L829.2806,457.63193L829.2767,457.60416Q829.17596,457.25482,828.9423,457.02283L828.934,457.02383C828.9384,457.01465,828.9418,457.00577,828.9438,456.9963C828.9543,456.94772,828.92755,456.89877,828.881,456.88135Q828.77795,456.84274,828.6797,456.8051L828.6714,456.80612Q828.326,456.55463,826.9688,455.87555L826.96606,455.87424Q826.79175,455.79352,826.7168,455.7889Q826.71014,455.7885,826.7038,455.7885 Z"/>
</g>
<g style="fill:rgb(68,125,144); fill-opacity:1.0; stroke-linejoin: miter">
<path d="M804.30585,545.2022L804.30585,545.2022L804.2627,545.1817L804.25287,545.17633L804.21985,545.1558L804.20593,545.1454L804.183,545.1249L804.16473,545.1032L804.152,545.08276L804.13763,545.0428L804.13495,545.0224L804.1403,544.97455L804.1479,544.9541L804.1661,544.92334L804.18365,544.903L804.20013,544.88776L804.2279,544.8674L804.23987,544.85986L804.2778,544.83954C804.32654,544.81335,804.38727,544.8317,804.41345,544.8805C804.43964,544.92926,804.42126,544.99,804.3725,545.0162L804.3725,545.0162L804.3346,545.0365L804.34656,545.029L804.3188,545.0494L804.33527,545.0341L804.3177,545.05444L804.3359,545.0237L804.3283,545.0441L804.3337,544.9963L804.33636,545.01666L804.322,544.9767L804.3348,544.99713L804.3165,544.97546L804.3395,544.996L804.32556,544.98553L804.3586,545.00604L804.34875,545.0007L804.3919,545.0212C804.4419,545.0449,804.46313,545.10474,804.4394,545.1547C804.41565,545.2047,804.35583,545.22595,804.30585,545.2022 Z"/>
</g>
</g>
</svg>